<svg width="50" height="50" viewBox="0 0 50 50" fill="none" xmlns="http://www.w3.org/2000/svg">
<g clip-path="url(#clip0_1069_2289)">
<path d="M25 0C11.2152 0 0 11.2149 0 24.9994C0 29.7954 1.36234 34.4555 3.93834 38.4738C6.44698 42.3866 9.98119 45.5191 14.1597 47.5321C14.7418 47.8129 15.3391 48.0735 15.9313 48.3022C15.9846 48.3238 16.0368 48.3441 16.0876 48.3632C17.422 48.8728 18.8097 49.2693 20.2115 49.54C21.7759 49.845 23.3873 50 25 50C26.6127 50 28.3398 49.8335 29.9576 49.5069C31.4165 49.2146 32.8589 48.7864 34.2428 48.2348L34.281 48.2209C34.891 47.9769 35.4921 47.7075 36.0703 47.4215C40.1878 45.3844 43.6661 42.2531 46.1303 38.367C48.6618 34.3729 50 29.7509 50 24.9994C50 11.2149 38.7848 0 25 0ZM34.0331 47.4978L33.9963 47.5118C32.6428 48.0531 31.2335 48.4725 29.8076 48.7584C26.7194 49.3824 23.4508 49.3938 20.3563 48.7902C18.9978 48.5271 17.652 48.1433 16.357 47.649C16.3087 47.6312 16.2617 47.6134 16.2096 47.5918C15.6339 47.3682 15.0544 47.1165 14.4901 46.8433C10.4387 44.8913 7.01251 41.8541 4.58011 38.0607C2.08291 34.1644 0.762505 29.648 0.762505 24.9981C0.762505 11.6355 11.6358 0.762486 25 0.762486C38.3642 0.762486 49.2375 11.6355 49.2375 24.9994C49.2375 29.606 47.94 34.0869 45.486 37.9591C43.0968 41.7283 39.724 44.7643 35.7323 46.7391C35.182 47.0111 34.6088 47.2678 34.0331 47.499V47.4978Z" fill="#38C266"/>
<path d="M30.1814 40.0327C30.1789 40.1727 30.1776 40.3932 30.1738 40.5892C28.589 41.015 26.2609 41.4314 23.479 41.211C22.2361 41.1118 21.1305 40.9053 20.1875 40.6638C20.19 40.5495 20.1913 40.3827 20.1926 40.2789C20.2167 40.2859 29.4189 40.308 30.1814 40.0327Z" fill="#0A6127"/>
<path d="M24.6814 40.8809C23.6088 40.9171 22.0317 40.8588 20.2703 40.356C20.2461 40.349 20.2195 40.3408 20.1953 40.3338V40.2615C22.0431 40.6803 23.5325 40.8786 24.6522 40.8786H24.6801V40.8809H24.6814Z" fill="#38C266"/>
<path d="M16.2125 48.0401C17.5163 48.4974 18.8736 48.8556 20.2728 49.104C21.7991 49.377 23.3762 49.5193 24.9889 49.5193C26.6016 49.5193 28.2931 49.3665 29.8715 49.0737C31.3418 48.8031 32.7639 48.4111 34.1262 47.9106H34.1275C33.4184 46.4454 32.769 45.7023 32.4373 45.2637C32.4373 45.2637 30.831 42.9982 30.1854 42.0217C30.1752 42.0054 30.1638 41.9891 30.1536 41.9727C30.1536 41.5213 30.1625 41.0103 30.1688 40.5903C28.5841 41.0161 26.2559 41.4326 23.4741 41.2121C22.2299 41.113 21.1255 40.9065 20.1826 40.665C20.1775 41.1001 20.1711 41.5854 20.1648 41.9716C20.1648 41.9716 20.1648 41.9727 20.1648 41.9739C20.0135 42.1874 16.731 46.7032 16.0625 47.9865" fill="#38C266"/>
<path d="M40.0312 34.2337C39.7414 34.9255 39.2394 35.4202 38.4286 35.9906C37.5492 36.6101 36.0077 37.5282 33.6719 38.1756C33.2258 38.5163 32.6044 38.9467 31.8101 39.362C31.2763 39.642 30.754 39.8672 30.2559 40.0515C30.2304 40.0608 30.205 40.0702 30.1809 40.0795C28.2683 40.7666 26.1663 40.9486 24.1266 40.8926C22.8011 40.8564 21.4591 40.7083 20.1921 40.3361C19.7307 40.202 19.258 40.0375 18.7763 39.8368C17.8715 39.4577 17.1154 39.0202 16.5015 38.6026C16.3249 38.5746 16.0542 38.5291 15.7263 38.4603C14.7973 38.2643 12.5645 37.7685 10.6061 36.1819C9.92239 35.6278 9.3683 35.1658 9.15861 34.3784C8.96545 33.6528 9.16878 33.0357 9.26155 32.7639C9.72287 31.4211 10.9658 30.7585 11.3292 30.58C11.2453 29.4391 11.2085 27.8327 11.4334 25.9277C11.7168 23.528 11.9341 21.6965 13.1402 19.6142C13.6116 18.7999 15.2993 15.9803 18.8806 14.4404C19.7625 14.0601 20.5466 13.8489 21.1045 13.7276C21.6065 11.7479 24.185 10.9756 24.9603 11.2136C24.3147 11.4679 24.1673 11.6534 23.7186 12.6345C24.3731 12.666 25.236 11.5752 26.5857 12.0652C25.3047 12.6193 25.7075 13.1875 25.6668 13.205C26.3506 13.1968 27.8298 13.2913 29.0168 13.5853C32.5942 14.4695 34.6136 16.8494 35.3265 17.715C35.6874 18.1524 37.0943 19.9245 37.7055 22.5096C37.7564 22.7219 37.8606 23.1932 38.0156 24.7879C38.1452 26.1202 38.2888 28.0112 38.3257 30.342C38.5405 30.4319 39.702 30.9382 40.1367 32.1456C40.4861 33.1197 40.1506 33.9549 40.0324 34.2337H40.0312Z" fill="#38C266"/>
<path d="M29.8721 49.0737C28.2937 49.3665 26.6607 49.5194 24.9895 49.5194C23.3184 49.5194 21.7997 49.377 20.2734 49.1041C21.0842 48.2758 22.0145 47.6178 22.9117 47.5023C27.0305 46.8432 29.407 48.6701 29.8734 49.0737H29.8721Z" fill="#6DD38F"/>
<path d="M35.8968 47.1885C35.3211 47.4498 34.734 47.6901 34.1342 47.9106H34.1329C33.4047 46.4372 32.7096 45.6754 32.3791 45.238C32.3791 45.238 30.802 43.0635 30.192 42.0217C30.1819 42.0054 30.173 41.989 30.1641 41.9739C30.2365 41.9249 31.0295 42.3203 31.6128 42.6622C33.481 43.7576 34.1609 45.0595 35.4647 46.6729C35.6211 46.8665 35.7647 47.0368 35.8968 47.1885Z" fill="#38C266"/>
<path d="M16.0677 47.9864C15.4742 47.7752 14.8909 47.5419 14.3203 47.2888C14.4766 47.1138 14.6482 46.9108 14.8401 46.6728C16.144 45.0594 16.8239 43.7575 18.692 42.6621C19.2715 42.3215 20.0912 41.9283 20.17 41.9738H20.1713C19.574 42.8523 17.4745 45.9064 16.2189 48.04" fill="#38C266"/>
<path d="M25.0234 30.2627H25.0337V30.265" stroke="#00371D" stroke-miterlimit="10"/>
<path d="M25.0156 39.1741H25.0677" stroke="#00371D" stroke-miterlimit="10"/>
<path d="M25.0078 30.2638V30.2615H25.0194" stroke="#00371D" stroke-miterlimit="10"/>
<path d="M24.9688 39.1741H25.0209" stroke="#00371D" stroke-miterlimit="10"/>
<path d="M17.4719 35.1763C16.1312 35.2463 14.8578 33.879 14.1474 31.841C14.0279 31.3301 13.9428 30.7888 13.897 30.2276C13.62 26.8422 14.9022 24.0168 16.7602 23.9176C18.101 23.8476 19.3756 25.2148 20.0847 27.2529C20.2055 27.7638 20.2893 28.3051 20.3364 28.8662C20.6134 32.2517 19.3311 35.0771 17.4732 35.1763H17.4719Z" fill="white"/>
<path d="M18.4087 32.856C19.3428 32.7673 19.8994 30.9101 19.6516 28.7088C19.4038 26.5074 18.4468 24.7926 17.5127 24.8812C16.5787 24.9699 16.022 26.8259 16.2699 29.0284C16.5164 31.2309 17.4746 32.9446 18.4087 32.856Z" fill="#00371D"/>
<path d="M20.0867 27.2529C19.3776 25.2138 18.1029 23.8454 16.7622 23.9177C14.9042 24.0157 13.6219 26.8411 13.899 30.2277C13.9435 30.7877 14.0299 31.329 14.1493 31.8411C13.8761 31.0537 13.6855 30.1659 13.6079 29.2233C13.3309 25.8367 14.6132 23.0112 16.4712 22.9133C18.0216 22.8316 19.4831 24.6736 20.0854 27.2541L20.0867 27.2529Z" fill="#0A6127"/>
<path d="M18.7821 26.91C18.8165 26.0035 18.3831 25.2546 17.8163 25.2359C17.2495 25.2184 16.7615 25.9382 16.7285 26.8446C16.6942 27.7511 17.1275 28.5 17.6943 28.5187C18.2611 28.5362 18.7491 27.8164 18.7821 26.91Z" fill="white"/>
<path d="M31.8943 35.1763C33.2338 35.2463 34.5084 33.879 35.2188 31.841C35.3383 31.3301 35.4234 30.7888 35.4692 30.2276C35.7462 26.8422 34.4639 24.0168 32.606 23.9176C31.2652 23.8476 29.9906 25.2148 29.2814 27.2529C29.1607 27.7638 29.0768 28.3051 29.0298 28.8662C28.7528 32.2517 30.0351 35.0771 31.8943 35.1763Z" fill="white"/>
<path d="M33.0955 29.0272C33.3433 26.8247 32.7854 24.9675 31.8526 24.88C30.9186 24.7913 29.9616 26.505 29.7151 28.7076C29.4673 30.9101 30.0252 32.7673 30.958 32.8547C31.892 32.9434 32.849 31.2285 33.0968 29.0272H33.0955Z" fill="#00371D"/>
<path d="M29.2812 27.2529C29.9904 25.2138 31.265 23.8454 32.6058 23.9177C34.4637 24.0157 35.746 26.8411 35.469 30.2277C35.4232 30.7877 35.3381 31.329 35.2186 31.8411C35.4919 31.0537 35.6825 30.1659 35.76 29.2233C36.037 25.8367 34.7548 23.0112 32.8968 22.9133C31.3464 22.8316 29.8849 24.6736 29.2825 27.2541L29.2812 27.2529Z" fill="#0A6127"/>
<path d="M31.6757 28.5162C32.2425 28.4987 32.6758 27.7486 32.6415 26.8422C32.6072 25.9357 32.1205 25.216 31.5537 25.2335C30.9869 25.251 30.5535 26.0011 30.5878 26.9075C30.6222 27.8139 31.1089 28.5337 31.6757 28.5162Z" fill="white"/>
<path d="M32.9738 35.742C32.8455 35.7968 32.707 35.8517 32.5481 35.917C31.5467 36.3276 31.8034 36.3043 30.7562 36.7406C29.8857 37.1022 29.1702 37.3997 28.1535 37.6587C26.767 38.011 25.8228 38.0343 25.6017 38.0378C25.2306 38.0437 24.9154 38.0285 24.6829 38.0098C24.4503 38.0285 24.1339 38.0437 23.7628 38.0378C23.5417 38.0343 22.5974 38.0098 21.2109 37.6587C20.1943 37.4009 19.4788 37.1022 18.6082 36.7406C17.5611 36.3055 17.8165 36.3276 16.8164 35.917C16.6588 35.8517 16.519 35.798 16.3906 35.742C16.8672 35.8342 17.2268 35.8003 17.4543 35.7583C17.7415 35.7058 18.0821 35.581 18.7646 35.3314C18.7671 35.3314 18.7696 35.329 18.7722 35.329C18.945 35.5273 19.1649 35.7513 19.4406 35.973C20.4535 36.7896 22.2301 34.9931 23.0587 35.1785C23.6039 35.3022 24.5952 35.1867 25.5432 35.1785L26.2587 34.7854C27.2055 34.7936 26.978 35.287 27.5232 35.1645C28.3518 34.9779 28.911 36.7884 29.9238 35.973C30.1996 35.7513 30.4194 35.5273 30.5923 35.329C30.5948 35.329 30.5974 35.3314 30.5999 35.3314C31.2823 35.581 31.6217 35.7058 31.9101 35.7583C32.1364 35.8003 32.496 35.8342 32.9738 35.742Z" fill="#F7931E"/>
<path d="M34.4137 36.0663C34.3756 36.4688 34.0007 36.7861 33.7605 36.9879C33.5038 37.2037 33.27 37.3239 32.9789 37.4464C32.5024 37.5385 32.1427 37.5047 31.9152 37.4627C31.628 37.4102 31.2874 37.2854 30.605 37.0358C30.6025 37.0358 30.5999 37.0334 30.5974 37.0334C29.9632 36.8001 29.657 36.6613 29.3634 36.5458C27.968 35.9975 26.6323 35.9217 25.7783 35.8738C25.7275 35.8715 25.6754 35.868 25.6195 35.8657C25.4937 35.8598 25.3552 35.8552 25.2065 35.8528H24.8646C24.8189 35.8528 24.7718 35.8528 24.7248 35.8552H24.6498C24.6028 35.8552 24.5558 35.8528 24.51 35.8528H24.1682C24.0195 35.8552 23.881 35.8598 23.7552 35.8657C23.6992 35.868 23.6471 35.8703 23.5963 35.8738C22.741 35.9217 21.4066 35.9987 20.0113 36.5458C19.7177 36.6613 19.4127 36.8013 18.7773 37.0334C18.7747 37.0334 18.7722 37.0358 18.7697 37.0358C18.0872 37.2854 17.7479 37.4102 17.4594 37.4627C17.2332 37.5047 16.8736 37.5385 16.3957 37.4464C16.1047 37.3239 15.8709 37.2037 15.6142 36.9879C15.374 36.7861 14.9991 36.4688 14.9609 36.0663C15.1719 36.0745 15.3613 36.0745 15.5277 36.0698C16.1695 36.0535 16.6435 36.0407 17.2167 35.8482C17.7568 35.6662 17.8305 35.5087 18.6553 35.0922C19.1852 34.8239 19.5893 34.6688 20.0608 34.4868C20.8805 34.1718 21.7167 33.8498 22.8008 33.6632C22.8567 33.6527 22.9151 33.6445 22.9761 33.634C23.0371 33.6247 23.0994 33.6165 23.1655 33.6072C23.1973 33.6037 23.2316 33.5978 23.2659 33.5943C23.3332 33.5862 23.4031 33.578 23.4756 33.571C23.5506 33.5628 23.6281 33.5558 23.7081 33.5488C23.778 33.543 23.8505 33.5383 23.9255 33.5337H23.9407C24.0411 33.5278 24.1428 33.5232 24.2482 33.5197C24.3004 33.5173 24.355 33.5162 24.4096 33.5162C24.491 33.5162 24.5749 33.5138 24.6613 33.5162H24.965C25.0197 33.5162 25.073 33.5185 25.1264 33.5197C25.2332 33.522 25.3348 33.5278 25.4352 33.5337H25.4505C25.5242 33.5372 25.5966 33.543 25.6678 33.5488C25.7478 33.5558 25.8254 33.5628 25.9003 33.571C25.9728 33.5792 26.0427 33.5873 26.11 33.5943C26.1443 33.5978 26.1774 33.6037 26.2104 33.6072C26.2765 33.6165 26.3388 33.6247 26.3998 33.634C26.4608 33.6433 26.5192 33.6527 26.5752 33.6632C27.6592 33.8498 28.4967 34.1706 29.3151 34.4868C29.7866 34.6676 30.1907 34.8239 30.7206 35.0922C31.5454 35.5087 31.6191 35.6662 32.1592 35.8482C32.7324 36.0418 33.2064 36.0535 33.8482 36.0698C34.0147 36.0733 34.2053 36.0733 34.415 36.0663H34.4137Z" fill="#F7AB1E"/>
<path d="M34.413 35.9579C34.4156 35.9941 34.413 36.0303 34.4105 36.0653C34.1995 36.0734 34.0102 36.0734 33.8437 36.0688C33.2019 36.0524 32.7279 36.0396 32.1547 35.8471C31.6146 35.6651 31.5409 35.5076 30.7161 35.0912C30.1849 34.8229 29.7821 34.6677 29.3106 34.4857C28.4909 34.1707 27.6547 33.8488 26.5707 33.6621C26.5147 33.6528 26.4575 33.6434 26.3953 33.6341C26.3355 33.6248 26.272 33.6166 26.2059 33.6073C26.1741 33.6038 26.1398 33.598 26.1055 33.5945C26.0382 33.5851 25.9683 33.5781 25.8958 33.5711C25.8209 33.563 25.7433 33.556 25.6633 33.5501C25.5921 33.5443 25.5209 33.5396 25.446 33.535H25.4307C25.3303 33.5291 25.2286 33.5245 25.1219 33.521C25.0698 33.5186 25.0151 33.5175 24.9605 33.5175C24.9147 33.5151 24.8677 33.5151 24.8207 33.5151H24.5449C24.4979 33.5151 24.4509 33.5151 24.4051 33.5175C24.3505 33.5175 24.2971 33.5198 24.2437 33.521C24.137 33.5245 24.0353 33.5291 23.9362 33.535H23.9209C23.8472 33.5385 23.7735 33.5443 23.7036 33.5501C23.6236 33.5571 23.546 33.5641 23.4711 33.5711C23.3986 33.5781 23.3287 33.5863 23.2614 33.5945C23.2271 33.598 23.194 33.6038 23.161 33.6073C23.0949 33.6166 23.0326 33.6248 22.9716 33.6341C22.9106 33.6434 22.8522 33.6528 22.7963 33.6621C21.7122 33.8488 20.8747 34.1696 20.0563 34.4857C19.5848 34.6677 19.1807 34.8229 18.6508 35.0912C17.826 35.5076 17.7523 35.6651 17.2122 35.8471C16.639 36.0408 16.165 36.0524 15.5232 36.0688C15.3567 36.0723 15.1661 36.0723 14.9564 36.0653C14.9526 36.0303 14.9526 35.9941 14.9539 35.9579C14.9729 35.6138 15.2373 35.3712 15.5918 35.0562C16.1078 34.5965 16.6123 34.3656 16.6606 34.3446C17.7726 33.8348 18.1729 33.2608 19.6776 32.2867C21.8431 30.8845 22.7009 30.6243 23.1241 30.5147C23.7532 30.3502 24.2971 30.2884 24.6707 30.2627H24.6923C25.066 30.2872 25.6099 30.349 26.239 30.5147C26.6634 30.6255 27.52 30.8845 29.6855 32.2867C31.1914 33.2608 31.5917 33.8348 32.7025 34.3446C32.7508 34.3656 33.2553 34.5965 33.7712 35.0562C34.1258 35.3712 34.3901 35.6138 34.4092 35.9579H34.413Z" fill="#F7931E"/>
<path d="M22.7584 32.9072C22.9643 32.8839 23.1638 32.6098 23.0939 32.4581C23.0151 32.2854 22.6021 32.3018 22.3708 32.3508C22.0721 32.4149 21.8269 32.5876 21.8447 32.6331C21.8625 32.6728 22.1014 32.6541 22.2907 32.5923C22.3428 32.5759 22.3987 32.5526 22.4877 32.5433C22.5411 32.5374 22.6961 32.5211 22.7292 32.5783C22.7724 32.6529 22.5601 32.7882 22.6046 32.8664C22.6288 32.9084 22.7114 32.9119 22.7584 32.9072Z" fill="#F76E1E"/>
<path d="M26.6072 32.9072C26.4013 32.8839 26.203 32.6098 26.2717 32.4581C26.3504 32.2854 26.7635 32.3018 26.9948 32.3508C27.2934 32.4149 27.5387 32.5876 27.5209 32.6331C27.5031 32.6728 27.2642 32.6541 27.0748 32.5923C27.0227 32.5759 26.9668 32.5526 26.8778 32.5433C26.8245 32.5374 26.6694 32.5211 26.6364 32.5783C26.5932 32.6529 26.8054 32.7882 26.7609 32.8664C26.7381 32.9084 26.6542 32.9119 26.6072 32.9072Z" fill="#F76E1E"/>
<path d="M7.76565 25.3537C7.67034 24.8579 8.01982 24.3831 8.55612 24.2804C9.9731 24.0086 12.8338 23.6038 16.2307 23.8943C21.0981 24.3107 21.811 25.0853 21.811 25.0853H26.8079C26.8079 25.0853 30.8314 23.6924 34.466 23.7928C36.8158 23.8581 38.8403 23.9561 39.9777 24.0168C40.5267 24.0459 40.955 24.4636 40.955 24.9687V25.622C40.955 26.1481 40.4898 26.5751 39.9167 26.5751C39.9167 26.5751 40.3056 32.9493 35.5043 33.3657C30.7018 33.7822 28.6253 33.4252 27.0685 31.1621C25.5104 28.8989 26.095 26.9927 24.2777 26.9927C22.4604 26.9927 22.8505 33.2514 18.7622 33.5174C14.6739 33.7834 10.9745 33.4859 10.0011 31.1026C9.0276 28.7192 8.76835 26.5751 8.76835 26.5751C8.30957 26.5401 7.9334 26.2251 7.85334 25.8086L7.76565 25.3525V25.3537Z" fill="#02A1FD"/>
<path d="M40.955 24.9686V25.6219C40.955 26.148 40.4898 26.575 39.9167 26.575C39.9167 26.575 39.9243 26.6986 39.9243 26.9133C39.9243 28.2362 39.6358 33.0075 35.5043 33.3657C30.7018 33.7833 28.6253 33.4252 27.0672 31.162C25.5104 28.8977 26.0937 26.9915 24.2777 26.9915C22.4617 26.9915 22.8493 33.2513 18.761 33.5173C14.6727 33.7833 10.9745 33.4847 10.0011 31.1025C9.80916 30.6335 9.64523 30.1739 9.50543 29.7376C8.93483 27.9586 8.76707 26.575 8.76707 26.575C8.53832 26.5575 8.3299 26.47 8.16851 26.3347C8.00711 26.1994 7.89274 26.0174 7.85334 25.8085L7.76565 25.3536C7.67034 24.8578 8.01982 24.383 8.55612 24.2803C9.9731 24.0085 12.8338 23.6025 16.2307 23.8942C16.4582 23.914 16.6768 23.9339 16.8865 23.9548H16.8878C21.1629 24.3818 21.811 25.0853 21.811 25.0853H26.8079C26.8079 25.0853 30.8314 23.6924 34.466 23.7939C35.4141 23.8207 36.3088 23.851 37.1145 23.8825C37.3051 24.6 37.4385 25.3349 37.5211 26.0769C37.6724 27.4336 37.7639 28.7962 37.8833 30.1552C38.1896 28.0869 38.5022 26.0185 38.3713 23.9374C39.0106 23.9665 39.5558 23.9945 39.9777 24.0167C40.5267 24.047 40.955 24.4635 40.955 24.9686Z" fill="#02A1FD"/>
<path d="M20.9665 30.2686C20.0528 32.4186 17.1972 32.7091 14.9237 32.3707C13.48 32.1561 12.2714 31.6883 11.9461 31.2812C11.9461 31.2812 10.4529 29.7389 10.5177 28.6937C10.5825 27.6473 10.5164 25.6221 10.5164 25.6221C10.5164 25.6221 11.0921 24.907 12.8166 25.1461C13.2652 25.2079 14.0328 25.3059 14.9237 25.4179C17.4514 25.7352 20.9665 26.1587 20.9665 26.1587C20.9665 26.1587 22.4585 26.7537 20.9665 30.2686Z" fill="#2E2F31"/>
<path d="M38.2827 28.6937C38.3475 29.7389 36.8555 31.2812 36.8555 31.2812C36.4362 31.8061 34.5464 32.4337 32.5779 32.4862C30.617 32.5387 28.5798 32.0219 27.8351 30.2686C27.4056 29.2595 27.2238 28.4907 27.1819 27.9086C27.1679 27.7172 27.1692 27.5469 27.1819 27.3953C27.2632 26.3873 27.8351 26.1587 27.8351 26.1587C27.8351 26.1587 30.2942 25.8624 32.5779 25.5789C33.986 25.4051 35.3254 25.2371 35.9837 25.1461C37.7083 24.907 38.2852 25.6221 38.2852 25.6221C38.2852 25.6221 38.2179 27.6473 38.2827 28.6937Z" fill="#2E2F31"/>
<path opacity="0.17" d="M14.9237 25.4179V32.3707C13.48 32.1561 12.2714 31.6883 11.9461 31.2812C11.9461 31.2812 10.4529 29.7389 10.5177 28.6937C10.5825 27.6473 10.5164 25.6221 10.5164 25.6221C10.5164 25.6221 11.0921 24.907 12.8166 25.1461C13.2652 25.2079 14.0328 25.3059 14.9237 25.4179Z" fill="white"/>
<path opacity="0.17" d="M32.5757 25.5789V32.4862C30.6148 32.5387 28.5776 32.0219 27.8329 30.2685C27.4034 29.2594 27.2216 28.4906 27.1797 27.9085V27.3952C27.261 26.3873 27.8329 26.1586 27.8329 26.1586C27.8329 26.1586 30.292 25.8623 32.5757 25.5789Z" fill="white"/>
<path d="M43.1121 18.8056C42.4055 21.1283 40.1701 21.21 37.9855 21.4573C38.2041 22.2867 38.3248 23.1138 38.3757 23.9374C37.9893 23.9199 37.5674 23.9013 37.1188 23.8826C36.8367 22.8152 36.4275 21.7816 35.8696 20.8017C34.8287 18.9736 33.1131 17.6997 31.2246 16.6428C30.7926 16.4001 30.2664 16.4106 29.7759 16.7618C28.885 17.3999 28.153 18.129 27.6764 19.0809C26.5035 21.4269 25.0827 22.2809 22.2766 21.8901C19.8735 21.5564 18.2277 22.3707 16.8921 23.9549H16.8908C16.8006 24.0611 16.7129 24.1719 16.6252 24.2851C15.6073 25.6103 14.6313 26.967 13.5269 28.2293C12.4556 29.4519 11.0742 29.9488 9.50976 29.7377C9.21874 29.6992 8.92264 29.6362 8.62018 29.5475C6.96427 29.0669 5.83322 28.0438 5.55618 26.4339C5.25753 24.6957 6.1738 23.4206 7.73059 22.303C7.76998 22.6029 7.79032 22.7685 7.81319 22.933C7.89452 23.5035 8.13853 23.9829 8.80953 24.0984C9.48054 24.2127 10.074 23.9456 10.3244 23.4008C10.6993 22.5854 10.9738 21.7233 11.1962 20.86C11.4262 19.9664 11.5609 19.0518 11.702 18.1418C11.9371 16.6218 12.922 15.7457 14.461 15.2767C15.2451 15.0376 15.9961 14.7074 16.9226 14.3575C14.8892 12.8887 14.3631 11.0199 14.4152 8.96902C14.4978 5.66759 17.0509 2.81764 20.3793 2.24834C21.5815 2.04303 22.3796 1.67789 23.2488 0.968604C24.3316 0.0831687 25.5885 -0.119816 27.008 0.0598371C28.7109 0.275655 30.3706 0.694457 32.1244 0.70379C35.7933 0.724788 38.152 2.49799 39.1852 5.77259C39.2538 5.9919 39.4305 6.27888 39.6338 6.35121C43.7183 7.80477 44.7451 11.5133 41.8044 14.3995C43.5111 15.5439 43.6179 17.1479 43.1121 18.8056Z" fill="#2D9E4F"/>
</g>
<defs>
<clipPath id="clip0_1069_2289">
<rect width="50" height="50" rx="25" fill="white"/>
</clipPath>
</defs>
</svg>
