<svg width="542" height="374" viewBox="0 0 542 374" fill="none" xmlns="http://www.w3.org/2000/svg">
<path opacity="0.3" d="M481.133 293.848L397.834 308.852L113.92 316.872L113.273 286.476H481.133V293.848Z" fill="#464648"/>
<path d="M137.328 308.853H103.181C99.8178 308.853 97.1016 306.137 97.1016 302.774V295.013C97.1016 291.65 99.8178 288.934 103.181 288.934H137.328C140.691 288.934 143.407 291.65 143.407 295.013V302.774C143.407 306.137 140.691 308.853 137.328 308.853Z" fill="#FCB002" stroke="#D07C32" stroke-width="0.194301" stroke-miterlimit="10"/>
<path d="M93.4822 295.144V302.905C93.4822 306.268 90.766 308.984 87.403 308.984H7.07925C3.71626 308.984 1 306.268 1 302.905V297.084C1 292.686 4.62168 289.194 8.89009 289.194H87.403C90.766 289.065 93.4822 291.781 93.4822 295.144Z" fill="#FCB002"/>
<mask id="mask0_1069_3135" style="mask-type:luminance" maskUnits="userSpaceOnUse" x="1" y="289" width="93" height="20">
<path d="M93.4822 295.144V302.905C93.4822 306.268 90.766 308.984 87.403 308.984H7.07925C3.71626 308.984 1 306.268 1 302.905V297.084C1 292.687 4.62168 289.194 8.89009 289.194H87.403C90.766 289.065 93.4822 291.781 93.4822 295.144Z" fill="white"/>
</mask>
<g mask="url(#mask0_1069_3135)">
<path d="M7.98363 273.931C4.87933 277.941 0.352227 280.657 -1.976 285.313C-4.17487 289.582 -4.04553 294.626 -3.65749 299.283C-2.75207 310.018 4.2326 315.58 12.6401 321.401C17.4259 324.764 21.953 316.874 17.1672 313.64C10.6999 309.113 5.52606 305.362 5.13802 297.213C5.00868 293.721 5.13802 290.358 7.20755 287.383C9.14774 284.667 12.252 282.856 14.3216 280.269C17.8139 275.742 11.476 269.404 7.98363 273.931Z" fill="#D07C32"/>
</g>
<path d="M93.4822 295.144V302.905C93.4822 306.268 90.766 308.984 87.403 308.984H7.07925C3.71626 308.984 1 306.268 1 302.905V297.084C1 292.686 4.62168 289.194 8.89009 289.194H87.403C90.766 289.065 93.4822 291.781 93.4822 295.144Z" stroke="#D07C32" stroke-width="0.194301" stroke-miterlimit="10"/>
<path d="M104.609 291.262V306.654" stroke="#FCE63C" stroke-width="0.194301" stroke-miterlimit="10"/>
<path d="M111.078 291.262V306.654" stroke="#FCE63C" stroke-width="0.194301" stroke-miterlimit="10"/>
<path d="M117.414 291.262V306.654" stroke="#FCE63C" stroke-width="0.194301" stroke-miterlimit="10"/>
<path d="M123.75 291.262V306.654" stroke="#FCE63C" stroke-width="0.194301" stroke-miterlimit="10"/>
<path d="M130.219 291.262V306.654" stroke="#FCE63C" stroke-width="0.194301" stroke-miterlimit="10"/>
<path d="M136.562 291.262V306.654" stroke="#FCE63C" stroke-width="0.194301" stroke-miterlimit="10"/>
<path d="M133.708 289.063H53.3839C50.0209 289.063 47.3047 286.347 47.3047 282.984V275.223C47.3047 271.86 50.0209 269.144 53.3839 269.144H133.708C137.071 269.144 139.787 271.86 139.787 275.223V282.984C139.787 286.347 137.071 289.063 133.708 289.063Z" fill="#FCB002"/>
<mask id="mask1_1069_3135" style="mask-type:luminance" maskUnits="userSpaceOnUse" x="47" y="269" width="93" height="21">
<path d="M133.708 289.063H53.3839C50.0209 289.063 47.3047 286.347 47.3047 282.984V275.223C47.3047 271.86 50.0209 269.144 53.3839 269.144H133.708C137.071 269.144 139.787 271.86 139.787 275.223V282.984C139.787 286.347 137.071 289.063 133.708 289.063Z" fill="white"/>
</mask>
<g mask="url(#mask1_1069_3135)">
<path d="M53.1274 259.961C47.9535 263.841 44.0732 267.851 43.6851 274.577C43.5558 278.069 43.2971 282.079 43.9438 285.571C44.4612 288.805 46.272 291.392 47.9535 294.108C50.5405 298.377 57.1371 294.496 54.5502 290.228C53.7741 288.934 52.4806 287.253 51.9633 285.83C51.1872 283.89 51.5752 280.786 51.5752 278.716C51.5752 273.025 52.4806 270.05 57.1371 266.687C60.8881 263.712 57.1371 256.986 53.1274 259.961Z" fill="#D07C32"/>
</g>
<path d="M133.708 289.063H53.3839C50.0209 289.063 47.3047 286.347 47.3047 282.984V275.223C47.3047 271.86 50.0209 269.144 53.3839 269.144H133.708C137.071 269.144 139.787 271.86 139.787 275.223V282.984C139.787 286.347 137.071 289.063 133.708 289.063Z" stroke="#D07C32" stroke-width="0.194301" stroke-miterlimit="10"/>
<path d="M151.301 269.274H70.9777C67.6147 269.274 64.8984 266.557 64.8984 263.194V255.434C64.8984 252.071 67.6147 249.354 70.9777 249.354H151.301C154.664 249.354 157.381 252.071 157.381 255.434V263.194C157.381 266.557 154.664 269.274 151.301 269.274Z" fill="#FCB002"/>
<mask id="mask2_1069_3135" style="mask-type:luminance" maskUnits="userSpaceOnUse" x="64" y="249" width="94" height="21">
<path d="M151.301 269.274H70.9777C67.6147 269.274 64.8984 266.558 64.8984 263.195V255.434C64.8984 252.071 67.6147 249.355 70.9777 249.355H151.301C154.664 249.355 157.381 252.071 157.381 255.434V263.195C157.381 266.558 154.664 269.274 151.301 269.274Z" fill="white"/>
</mask>
<g mask="url(#mask2_1069_3135)">
<path d="M65.4137 242.629C56.3595 251.553 56.7475 270.955 68.518 277.293C73.5625 280.009 78.0896 272.249 73.0451 269.532C66.7072 266.04 66.8365 253.882 71.7517 248.966C75.8907 244.957 69.5528 238.619 65.4137 242.629Z" fill="#D07C32"/>
</g>
<path d="M151.301 269.274H70.9777C67.6147 269.274 64.8984 266.557 64.8984 263.194V255.434C64.8984 252.071 67.6147 249.354 70.9777 249.354H151.301C154.664 249.354 157.381 252.071 157.381 255.434V263.194C157.381 266.557 154.664 269.274 151.301 269.274Z" stroke="#D07C32" stroke-width="0.194301" stroke-miterlimit="10"/>
<path d="M116.505 249.483C138.293 249.483 155.956 231.82 155.956 210.032C155.956 188.245 138.293 170.582 116.505 170.582C94.7173 170.582 77.0547 188.245 77.0547 210.032C77.0547 231.82 94.7173 249.483 116.505 249.483Z" fill="#FEDE16" stroke="#F2A93C" stroke-width="0.194301" stroke-miterlimit="10"/>
<path d="M150.65 210.034C150.65 228.918 135.387 244.181 116.502 244.181C115.209 244.181 113.786 244.051 112.493 243.922C106.931 243.275 101.757 241.335 97.3591 238.231C94.9016 236.549 92.5733 234.48 90.6332 232.281C87.2702 228.401 84.8126 223.744 83.5191 218.57C82.8724 215.854 82.4844 213.008 82.4844 210.034C82.4844 196.711 90.1158 185.199 101.24 179.508C105.767 177.18 110.94 175.886 116.244 175.886C116.373 175.886 116.502 175.886 116.502 175.886C119.477 175.886 122.323 176.274 125.168 177.05C130.601 178.473 135.387 181.189 139.397 184.811C146.252 191.02 150.65 199.945 150.65 210.034Z" fill="#FFBF04"/>
<path opacity="0.24" d="M116.248 175.886L90.6375 232.281C87.2745 228.401 84.8169 223.744 83.5234 218.57L101.244 179.508C105.642 177.309 110.815 176.016 116.248 175.886Z" fill="white"/>
<path opacity="0.24" d="M46.0096 289.064L36.9554 308.854H23.6328L32.5577 289.064H46.0096Z" fill="white"/>
<path opacity="0.24" d="M78.2151 289.064L71.7478 308.854H62.0469L68.5142 289.064H78.2151Z" fill="white"/>
<path opacity="0.24" d="M71.7525 269.273L64.5091 289.063H53.7734L60.8875 269.273H71.7525Z" fill="white"/>
<path opacity="0.24" d="M99.4365 248.967L92.1932 268.757H81.3281L88.5715 248.967H99.4365Z" fill="white"/>
<path opacity="0.24" d="M106.805 269.273L100.338 289.063H90.5078L97.1045 269.273H106.805Z" fill="white"/>
<path opacity="0.24" d="M139.397 184.682L112.493 243.922C106.931 243.275 101.757 241.335 97.3594 238.231L125.169 176.921C130.472 178.473 135.387 181.06 139.397 184.682Z" fill="white"/>
<path d="M73.1719 251.165V266.557" stroke="#FCE63C" stroke-width="0.194301" stroke-miterlimit="10"/>
<path d="M79.5078 251.165V266.557" stroke="#FCE63C" stroke-width="0.194301" stroke-miterlimit="10"/>
<path d="M85.8516 251.165V266.557" stroke="#FCE63C" stroke-width="0.194301" stroke-miterlimit="10"/>
<path d="M92.3125 251.165V266.557" stroke="#FCE63C" stroke-width="0.194301" stroke-miterlimit="10"/>
<path d="M98.6562 251.165V266.557" stroke="#FCE63C" stroke-width="0.194301" stroke-miterlimit="10"/>
<path d="M104.992 251.165V266.557" stroke="#FCE63C" stroke-width="0.194301" stroke-miterlimit="10"/>
<path d="M111.461 251.165V266.557" stroke="#FCE63C" stroke-width="0.194301" stroke-miterlimit="10"/>
<path d="M117.797 251.165V266.557" stroke="#FCE63C" stroke-width="0.194301" stroke-miterlimit="10"/>
<path d="M124.266 251.165V266.557" stroke="#FCE63C" stroke-width="0.194301" stroke-miterlimit="10"/>
<path d="M130.602 251.165V266.557" stroke="#FCE63C" stroke-width="0.194301" stroke-miterlimit="10"/>
<path d="M136.938 251.165V266.557" stroke="#FCE63C" stroke-width="0.194301" stroke-miterlimit="10"/>
<path d="M143.406 251.165V266.557" stroke="#FCE63C" stroke-width="0.194301" stroke-miterlimit="10"/>
<path d="M55.8438 272.506V288.028" stroke="#FCE63C" stroke-width="0.194301" stroke-miterlimit="10"/>
<path d="M62.3125 272.506V288.028" stroke="#FCE63C" stroke-width="0.194301" stroke-miterlimit="10"/>
<path d="M68.6484 272.506V288.028" stroke="#FCE63C" stroke-width="0.194301" stroke-miterlimit="10"/>
<path d="M74.9844 272.506V288.028" stroke="#FCE63C" stroke-width="0.194301" stroke-miterlimit="10"/>
<path d="M81.4531 272.506V288.028" stroke="#FCE63C" stroke-width="0.194301" stroke-miterlimit="10"/>
<path d="M87.7969 272.506V288.028" stroke="#FCE63C" stroke-width="0.194301" stroke-miterlimit="10"/>
<path d="M94.125 272.506V288.028" stroke="#FCE63C" stroke-width="0.194301" stroke-miterlimit="10"/>
<path d="M100.602 272.506V288.028" stroke="#FCE63C" stroke-width="0.194301" stroke-miterlimit="10"/>
<path d="M106.938 272.506V288.028" stroke="#FCE63C" stroke-width="0.194301" stroke-miterlimit="10"/>
<path d="M113.273 272.506V288.028" stroke="#FCE63C" stroke-width="0.194301" stroke-miterlimit="10"/>
<path d="M119.742 272.506V288.028" stroke="#FCE63C" stroke-width="0.194301" stroke-miterlimit="10"/>
<path d="M126.078 272.506V288.028" stroke="#FCE63C" stroke-width="0.194301" stroke-miterlimit="10"/>
<path d="M9.28125 291.262V306.654" stroke="#FCE63C" stroke-width="0.194301" stroke-miterlimit="10"/>
<path d="M15.6172 291.261V306.653" stroke="#FCE63C" stroke-width="0.194301" stroke-miterlimit="10"/>
<path d="M22.0859 291.261V306.653" stroke="#FCE63C" stroke-width="0.194301" stroke-miterlimit="10"/>
<path d="M28.4219 291.261V306.653" stroke="#FCE63C" stroke-width="0.194301" stroke-miterlimit="10"/>
<path d="M34.7656 291.261V306.653" stroke="#FCE63C" stroke-width="0.194301" stroke-miterlimit="10"/>
<path d="M41.2344 291.261V306.653" stroke="#FCE63C" stroke-width="0.194301" stroke-miterlimit="10"/>
<path d="M47.5625 291.261V306.653" stroke="#FCE63C" stroke-width="0.194301" stroke-miterlimit="10"/>
<path d="M54.0391 291.261V306.653" stroke="#FCE63C" stroke-width="0.194301" stroke-miterlimit="10"/>
<path d="M60.375 291.261V306.653" stroke="#FCE63C" stroke-width="0.194301" stroke-miterlimit="10"/>
<path d="M66.7109 291.261V306.653" stroke="#FCE63C" stroke-width="0.194301" stroke-miterlimit="10"/>
<path d="M73.1797 291.261V306.653" stroke="#FCE63C" stroke-width="0.194301" stroke-miterlimit="10"/>
<path d="M79.5156 291.261V306.653" stroke="#FCE63C" stroke-width="0.194301" stroke-miterlimit="10"/>
<path d="M85.8516 291.261V306.653" stroke="#FCE63C" stroke-width="0.194301" stroke-miterlimit="10"/>
<path opacity="0.44" d="M121.678 170.582H109.648V308.853H121.678V170.582Z" fill="#59361C"/>
<path d="M481.132 61.0273V293.85L444.251 309L394.016 324L397.833 10.3237L444.139 38.5211L481.132 61.0273Z" fill="#90A2A2"/>
<path opacity="0.07" d="M481.134 61.0272V293.85L444.141 309V38.521L481.134 61.0272Z" fill="#90A2A2"/>
<path d="M397.836 10.3237L394.544 324L113.922 316.873V10.3237H397.836Z" fill="#BCD1D4"/>
<path d="M368.99 269.273L151.818 283.372L139.789 29.3364L368.99 36.0624V269.273Z" fill="#4F5656"/>
<path d="M197.22 63.2257L160.874 118.327C160.615 118.715 160.098 118.844 159.71 118.456C126.209 92.3285 100.211 65.8126 78.0928 39.038C77.7048 38.65 77.8341 38.0033 78.3515 37.7446C97.7534 27.0089 111.852 14.4623 120.777 0.363646C121.036 -0.0243912 121.682 -0.153745 122.07 0.234292C142.119 20.2829 167.471 40.9782 197.22 62.0616C197.35 62.4496 197.479 62.967 197.22 63.2257Z" fill="#B4F26A"/>
<path d="M197.215 63.2253L160.869 118.327C160.61 118.715 160.093 118.844 159.705 118.585C126.204 92.4574 100.206 65.9415 78.0877 39.1669C77.829 38.7789 77.9584 38.1322 78.3464 37.8735C97.8776 27.1378 111.976 14.5912 120.772 0.49254C121.031 0.104503 121.677 -0.0248312 122.065 0.363206C125.428 3.7262 128.921 7.08917 132.542 10.4522H114.046V14.5912H137.069C154.272 30.1127 174.45 46.0222 197.215 62.1905C197.345 62.4492 197.474 62.9666 197.215 63.2253Z" fill="#B4F26A"/>
<path d="M187 64.6484L158.803 109.273C158.544 109.661 158.156 109.661 157.768 109.402C129.442 86.6372 107.194 63.8723 88.1803 40.8488C87.9216 40.4608 87.9216 40.0727 88.3096 39.8141C103.96 31.4066 115.214 21.5763 122.069 10.0645C122.328 9.67649 122.716 9.67648 123.104 9.93517C140.177 27.1382 161.778 45.1172 186.871 63.6137C187.13 63.8724 187.13 64.3897 187 64.6484Z" fill="#D8FFBA"/>
<path d="M169.279 274.189L187.129 247.415L147.937 183L129.57 224.52C129.182 225.426 129.311 226.59 129.958 227.366L169.279 274.189Z" fill="#B4F26A"/>
<path d="M170.439 269.661L186.22 245.991L151.555 188.95L135.257 225.684C134.869 226.46 134.999 227.495 135.645 228.142L170.439 269.661Z" fill="#D8FFBA"/>
<path d="M262.019 59.3457L179.367 66.7184L199.286 22.9995C228.907 25.1984 252.965 29.0788 267.322 35.9341L262.019 59.3457Z" fill="#B4F26A"/>
<path d="M165.265 252.976L185.055 235.126L155.823 127.511L126.591 162.305C125.944 163.081 125.815 164.245 126.203 165.15L165.265 252.976Z" fill="#B4F26A"/>
<path d="M136.945 188.95L165.272 252.976L185.062 235.126L155.959 127.511" stroke="#70894C" stroke-width="0.388602" stroke-miterlimit="10"/>
<path d="M251.93 59.3444L193.854 64.5182C191.267 64.7769 189.327 62.0607 190.362 59.6031L202.908 32.0525C203.555 30.759 204.848 29.9829 206.271 29.9829C227.225 31.6644 244.558 34.3807 255.94 39.0371C257.492 39.6838 258.398 41.3653 258.01 43.0468L254.905 56.7575C254.647 58.1803 253.353 59.2151 251.93 59.3444Z" fill="#D8FFBA"/>
<path d="M162.164 236.549L178.073 222.192L154.662 135.789L131.25 163.728C130.733 164.374 130.603 165.28 130.991 166.056L162.164 236.549Z" fill="#D8FFBA"/>
<path d="M338.978 66.2007L269.648 59.3454L301.079 22.3525C330.7 24.5514 348.032 25.5862 362.26 32.4415L338.978 66.2007Z" fill="#B4F26A"/>
<path d="M333.545 64.9069L276.633 59.345L302.373 28.9487C326.69 30.7596 340.788 31.665 352.559 37.2269L333.545 64.9069Z" fill="#D8FFBA"/>
<path opacity="0.4" d="M369.379 270.049L154.923 283.372L153.888 262.935L143.023 42.7886L149.491 39.0376L369.379 49.1266V270.049Z" fill="#4F5656"/>
<path d="M373.254 45.5049V272.765L349.325 274.318L170.698 285.7L158.798 286.476L147.286 46.9277L146.898 39.0376L158.152 39.4256L338.201 44.5994L373.254 45.5049Z" fill="#B3C7C6"/>
<path opacity="0.15" d="M373.256 45.5055V272.766L349.327 274.318L338.203 44.6001L373.256 45.5055Z" fill="#90A2A2"/>
<path d="M267.064 237.842C305.353 237.842 336.393 204.602 336.393 163.598C336.393 122.594 305.353 89.3535 267.064 89.3535C228.774 89.3535 197.734 122.594 197.734 163.598C197.734 204.602 228.774 237.842 267.064 237.842Z" fill="#859392"/>
<path d="M334.065 163.856C334.065 204.859 303.022 238.101 264.736 238.101C254.647 238.101 244.946 235.773 236.28 231.634C212.221 219.992 195.406 194.123 195.406 163.986C195.406 122.983 226.449 89.7412 264.736 89.7412C271.203 89.7412 277.541 90.6466 283.491 92.4574C312.594 101.124 334.065 129.709 334.065 163.856Z" fill="#FFFEFF"/>
<path opacity="0.23" d="M334.067 163.857C334.067 204.86 303.024 238.101 264.737 238.101C254.648 238.101 244.947 235.773 236.281 231.634C274.826 191.408 290.348 144.972 283.492 92.458C312.595 101.124 334.067 129.71 334.067 163.857Z" fill="#B3C7C6"/>
<path d="M291.251 164.891C291.251 183.129 279.352 197.875 264.606 197.875C261.89 197.875 259.303 197.357 256.845 196.452C245.851 192.313 237.961 179.766 237.961 164.891C237.961 146.654 245.204 130.744 259.95 130.744C265.9 130.744 272.108 132.296 277.411 135.918C285.431 141.092 291.251 150.405 291.251 164.891Z" fill="#464648"/>
<path opacity="0.54" d="M291.251 164.891C291.251 183.129 279.351 197.875 264.606 197.875C261.89 197.875 259.303 197.357 256.845 196.452L247.273 141.092L277.411 135.918C285.43 141.092 291.251 150.405 291.251 164.891Z" fill="#464648"/>
<path d="M283.876 164.892C283.876 180.413 275.21 193.477 263.44 196.97C261.5 197.616 259.43 197.875 257.231 197.875C253.998 197.875 250.764 197.099 247.918 195.806C244.297 194.124 241.063 191.537 238.347 188.174C235.76 184.94 233.69 180.931 232.267 176.533C231.103 172.911 230.586 169.031 230.586 164.892C230.586 149.5 238.993 136.565 250.505 132.943C252.704 132.297 254.903 131.909 257.231 131.909C258.783 131.909 260.206 132.038 261.629 132.426C265.509 133.202 269.131 135.013 272.235 137.729C276.633 141.351 279.996 146.654 281.936 152.863C283.23 156.484 283.876 160.623 283.876 164.892Z" fill="#757376"/>
<path d="M254.391 61.1562H269.653L262.022 78.2299L254.391 61.1562Z" fill="#8FA3A2"/>
<path d="M250.508 264.617H265.771L258.139 247.414L250.508 264.617Z" fill="#8FA3A2"/>
<path d="M171.477 154.544L172.253 169.807L187.257 161.4L171.477 154.544Z" fill="#8FA3A2"/>
<path d="M385.413 103.71H351.783C350.231 103.71 348.938 102.417 348.938 100.865V77.453C348.938 75.9009 350.231 74.6074 351.783 74.6074H385.413C386.965 74.6074 388.259 75.9009 388.259 77.453V100.865C388.259 102.417 386.965 103.71 385.413 103.71Z" fill="#90A2A2"/>
<path d="M384.513 101.9H349.072C347.52 101.9 346.227 100.607 346.227 99.0545V75.6429C346.227 74.0908 347.52 72.7974 349.072 72.7974H384.513C386.065 72.7974 387.359 74.0908 387.359 75.6429V99.0545C387.229 100.607 386.065 101.9 384.513 101.9Z" fill="#CFE0E2"/>
<path d="M384.507 101.899H350.877C349.325 101.899 348.031 100.606 348.031 99.0538V77.453C348.031 75.9009 349.325 74.6074 350.877 74.6074H384.507C386.059 74.6074 387.352 75.9009 387.352 77.453V99.0538C387.223 100.606 386.059 101.899 384.507 101.899Z" fill="#BCD1D4"/>
<path opacity="0.15" d="M261.627 132.296L238.345 188.044C235.758 184.81 233.688 180.8 232.266 176.403L250.503 132.813C252.702 132.166 254.901 131.778 257.229 131.778C258.782 131.908 260.204 132.037 261.627 132.296Z" fill="#CFE0E2"/>
<path opacity="0.15" d="M281.94 152.733L263.443 197.099C261.503 197.745 259.434 198.004 257.235 198.004C254.001 198.004 250.767 197.228 247.922 195.935L272.239 137.729C276.507 141.221 280 146.525 281.94 152.733Z" fill="#CFE0E2"/>
<path d="M373.254 45.5049L338.201 44.5994L158.152 39.4256L146.898 39.0376L147.286 46.9277L158.798 286.476L170.698 285.7L158.54 47.1864L373.254 51.8428V45.5049Z" fill="#B3C7C6"/>
<path opacity="0.62" d="M397.832 10.3237V14.4628H136.941C135.389 13.04 133.837 11.6172 132.414 10.3237H397.832Z" fill="#B3C7C6"/>
<path d="M401.036 373.225C403.648 369.513 410.111 363.326 416.436 357.963C427.985 349.026 430.873 330.052 419.323 326.477C397.324 321.802 358.687 348.614 353.6 350.676C353.6 351.226 353.463 352.188 353.6 354.938C355.8 354.938 358.275 354.801 361.025 354.801C370.375 354.663 371.75 354.663 373.262 355.626C374.224 356.176 376.012 358.926 376.974 366.9C377.662 366.488 384.399 362.363 391.411 364.701C398.011 366.625 400.624 372.263 401.036 373.225Z" fill="#F7931E"/>
<path d="M401.037 368.826C403.65 365.113 410.112 358.926 416.437 353.564C427.986 344.627 428.949 328.677 419.324 326.34C397.325 321.665 382.201 331.84 377.113 333.764C368.864 337.064 356.626 345.177 353.602 350.401C355.801 350.401 358.276 350.264 361.026 350.264C370.376 350.126 371.751 350.126 373.263 351.089C374.226 351.639 377.526 353.976 377.938 362.089C378.626 361.676 384.538 357.826 391.55 360.164C398.013 362.364 400.625 368.001 401.037 368.826Z" fill="#F7AB1E"/>
<path d="M492.471 365.938C489.859 362.225 483.396 356.038 477.071 350.676C465.522 341.739 465.934 321.252 475.834 319.189C497.833 314.514 536.469 341.326 541.557 343.388C541.007 344.763 540.869 345.038 539.907 347.651C537.707 347.651 535.232 347.513 532.482 347.513C523.132 347.376 522.445 346.963 520.932 347.926C519.97 348.476 519.007 352.051 518.183 359.75C517.495 359.338 509.108 354.938 502.096 357.138C495.358 359.475 492.746 365.113 492.471 365.938Z" fill="#F7931E"/>
<path d="M494.123 361.676C491.51 357.964 485.048 351.776 478.723 346.414C467.174 337.477 466.211 321.527 475.836 319.19C497.835 314.515 512.959 324.69 518.047 326.615C526.296 329.914 538.534 338.027 541.558 343.251C539.359 343.251 536.884 343.114 534.134 343.114C524.784 342.977 523.409 342.976 521.897 343.939C520.934 344.489 517.634 346.826 517.222 354.939C516.534 354.526 510.622 350.676 503.61 353.014C497.01 355.076 494.398 360.713 494.123 361.676Z" fill="#F7AB1E"/>
<path d="M511.856 293.194L513.231 304.881L504.706 301.581L500.856 306.256L495.769 303.781L485.044 284.807L484.632 283.982L455.758 232.559C455.758 232.559 490.544 237.921 505.119 254.283C519.693 270.507 522.168 295.394 522.168 295.394L513.093 293.469L511.993 293.194H511.856Z" fill="#38C266"/>
<path d="M388.523 293.194C388.523 293.194 384.81 293.056 379.173 290.994C377.248 290.306 375.048 289.481 372.711 288.244C366.936 285.356 360.199 280.544 353.599 273.119C336.137 253.595 337.65 244.245 337.65 244.245L349.199 246.72C349.199 246.72 330.775 236.271 327.887 219.634C325 202.997 327.887 195.435 327.887 195.435L325 180.585C325 180.585 344.799 199.834 349.887 200.109C354.974 200.522 350.299 183.335 346.587 180.585C343.012 177.835 340.399 175.498 340.399 175.498C340.399 175.498 358.411 173.023 373.536 196.534C388.66 219.909 398.835 239.845 408.185 243.145C417.672 246.308 388.523 293.194 388.523 293.194Z" fill="#38C266"/>
<path d="M513.366 304.744L504.841 301.444L500.992 306.119L495.904 303.644L485.18 284.669L484.767 283.844L481.055 246.996C481.055 246.996 484.63 247.958 499.754 261.433C507.729 268.582 510.891 281.919 512.129 292.919H511.854L513.366 304.744Z" fill="#0A6127"/>
<path d="M495.629 308.731C489.03 318.906 478.992 327.293 477.205 328.668C478.58 327.43 484.492 322.206 472.53 329.218C459.193 337.193 426.607 333.893 426.607 333.893C426.607 333.893 447.919 338.98 420.144 333.893C392.37 328.805 380.408 304.331 380.408 304.331C373.534 284.119 386.183 273.67 387.558 249.746C388.933 225.821 402.545 239.296 409.97 236.134C417.395 232.971 415.195 223.484 415.195 223.484L462.218 219.497V219.909L462.631 230.909L462.906 237.371L477.755 244.796C477.755 244.796 495.492 257.17 500.854 271.882C506.354 286.457 499.204 303.231 495.629 308.731Z" fill="#38C266"/>
<path d="M446.273 312.443C446.273 312.443 422.211 319.318 410.249 306.256C398.287 293.194 400.074 282.607 402.687 272.707C405.162 262.807 406.262 269.407 406.262 269.407C406.262 269.407 415.199 255.382 423.586 254.558C431.836 253.87 431.836 253.87 431.836 253.87L426.749 251.67C426.749 251.67 443.385 251.533 453.148 258.957C462.91 266.52 456.035 257.445 456.035 257.445C456.035 257.445 469.922 267.895 468.41 280.957C466.76 294.019 463.597 305.843 446.273 312.443Z" fill="#6DD38F"/>
<path d="M418.086 234.346C418.086 234.346 427.573 230.909 434.585 231.596C441.598 232.284 441.598 232.284 441.598 232.284L434.585 228.159C434.585 228.159 440.085 227.196 448.747 231.184" fill="#38C266"/>
<path d="M376.558 266.519C376.558 266.519 365.008 257.445 363.221 253.457C361.433 249.47 361.846 251.67 361.846 251.67C361.846 251.67 372.708 256.757 376.695 256.345" stroke="#0A6127" stroke-width="0.194301" stroke-miterlimit="10"/>
<path d="M378.486 248.095C378.486 248.095 373.673 246.17 371.473 241.22C369.273 236.27 369.273 236.27 369.273 236.27C369.273 236.27 374.223 240.533 378.486 241.22C382.61 241.907 375.186 238.745 373.948 234.208C372.711 229.67 372.573 229.67 372.573 229.67C372.573 229.67 375.048 234.483 379.723 234.208" stroke="#0A6127" stroke-width="0.194301" stroke-miterlimit="10"/>
<path d="M383.986 269.407C383.986 269.407 381.373 280.132 379.173 290.994C377.248 290.307 375.048 289.482 372.711 288.244L383.986 269.407Z" fill="#0A6127"/>
<path d="M327.75 195.572C331.325 201.347 335.037 206.434 338.612 209.872C353.049 223.209 353.049 223.209 353.049 223.209" stroke="#0A6127" stroke-width="0.194301" stroke-miterlimit="10"/>
<path d="M332.562 219.634C332.562 219.634 333.662 229.396 344.8 237.508" stroke="#0A6127" stroke-width="0.194301" stroke-miterlimit="10"/>
<path d="M351.398 263.771C351.398 263.771 357.448 271.608 361.848 274.908" stroke="#0A6127" stroke-width="0.194301" stroke-miterlimit="10"/>
<path d="M353.602 181.961C354.564 182.098 363.914 187.186 369.139 194.748" stroke="#0A6127" stroke-width="0.194301" stroke-miterlimit="10"/>
<path d="M462.912 231.047L435 222.934L462.499 220.047L462.912 231.047Z" fill="#0A6127"/>
<path d="M495.634 195.435C495.359 192.272 494.534 189.247 493.159 186.498C493.296 183.335 493.434 179.76 493.434 175.91C493.434 149.099 476.384 126.962 453.973 122.287C451.36 119.812 448.06 117.2 445.31 116.375C440.086 115 440.086 115 440.086 115V118.575C440.086 118.575 432.523 117.2 429.911 117.887C428.398 118.3 428.673 121.737 429.223 124.487C410.524 132.049 397.187 152.124 397.187 175.91C397.187 177.01 397.187 177.973 397.324 178.935C394.575 182.923 394.712 187.872 394.712 192.272C394.712 201.347 401.587 208.634 410.249 208.634C411.624 208.634 411.074 208.497 412.311 208.084C414.649 218.946 423.174 224.859 454.798 224.859C472.672 224.996 497.421 215.647 495.634 195.435Z" fill="#38C266"/>
<path d="M474.599 182.235C473.499 187.735 471.574 192.685 469.374 196.947C468.687 196.809 467.999 196.809 467.037 196.672C466.624 196.672 466.212 196.534 465.662 196.534C468.137 192.547 470.337 187.46 471.436 181.685C474.461 167.11 470.886 154.048 463.324 152.536C455.762 151.023 447.1 161.473 444.075 176.048C443.387 179.073 443.112 181.96 442.975 184.71C442.425 184.16 441.875 183.472 441.188 182.785C441.325 180.447 441.738 178.11 442.287 175.635C445.862 158.448 456.037 146.074 464.974 147.999C473.911 149.649 478.311 165.048 474.599 182.235Z" fill="#0A6127"/>
<path d="M463.459 152.261C455.896 150.611 447.234 161.198 444.209 175.772C443.522 178.797 443.247 181.685 443.109 184.435C443.522 184.847 443.797 185.26 444.072 185.535C445.172 186.772 445.722 187.735 447.234 189.109C449.984 191.447 452.597 192.409 455.621 193.509C458.234 194.472 461.534 195.709 465.796 196.259C468.271 192.272 470.471 187.185 471.571 181.41C474.596 166.973 471.021 153.911 463.459 152.261ZM464.696 178.247C462.771 185.947 458.096 191.309 454.109 190.347C450.122 189.384 448.472 182.372 450.259 174.672C452.047 166.973 456.859 161.61 460.846 162.573C464.834 163.673 466.484 170.685 464.696 178.247Z" fill="white"/>
<path d="M460.849 162.711C456.861 161.749 452.187 167.111 450.262 174.811C448.337 182.511 450.124 189.385 454.112 190.485C458.099 191.448 462.774 186.086 464.699 178.386C466.486 170.686 464.836 163.674 460.849 162.711ZM460.161 170.686C458.924 173.161 456.999 174.536 455.624 173.848C454.387 173.161 454.387 170.824 455.624 168.349C456.861 165.874 458.786 164.499 460.024 165.186C461.261 165.874 461.399 168.211 460.161 170.686Z" fill="#00371D"/>
<path d="M422.21 158.173C421.935 161.748 421.247 165.873 419.872 170.273C419.735 170.548 419.735 170.823 419.597 171.098C420.972 166.148 421.66 161.611 421.522 157.898C421.385 153.499 420.285 150.336 418.085 149.786C414.098 148.549 408.185 156.661 404.748 167.798C402.823 174.26 402.135 180.31 402.823 184.435C402.548 184.573 402.273 184.71 402.135 184.848C401.173 180.31 401.86 173.16 404.06 165.736C407.635 153.636 414.098 144.974 418.497 146.211C421.385 146.761 422.622 151.574 422.21 158.173Z" fill="#0A6127"/>
<path d="M421.523 157.76C421.248 157.623 420.973 157.485 420.698 157.485C416.711 156.523 412.036 161.885 410.111 169.585C408.874 174.672 409.286 179.484 410.798 182.509C411.623 182.509 412.448 182.509 413.411 182.647C413.961 182.097 414.648 181.409 415.611 180.722C417.123 177.972 418.361 174.81 419.598 171.235C420.973 166.01 421.661 161.473 421.523 157.76ZM419.598 162.848C419.186 164.772 417.948 166.147 416.986 165.872C416.023 165.597 415.611 163.81 416.023 162.023C416.436 160.098 417.673 158.723 418.636 158.998C419.598 159.273 420.148 160.923 419.598 162.848Z" fill="#00371D"/>
<path d="M421.519 157.76C421.244 157.623 420.969 157.485 420.694 157.485C416.706 156.523 412.031 161.885 410.107 169.585C408.869 174.672 409.282 179.485 410.794 182.51C408.044 182.51 405.982 183.06 404.469 183.61C403.782 183.885 403.369 184.022 402.819 184.297C402.269 180.172 402.819 173.985 404.744 167.66C408.044 156.523 414.094 148.548 418.081 149.648C420.281 150.198 421.381 153.361 421.519 157.76Z" fill="white"/>
<path d="M419.594 162.848C419.181 164.773 417.944 166.148 416.981 165.873C416.019 165.598 415.606 163.811 416.019 162.023C416.431 160.098 417.669 158.723 418.631 158.998C419.594 159.273 420.144 160.923 419.594 162.848Z" fill="white"/>
<path d="M460.161 170.685C458.923 173.16 456.998 174.535 455.623 173.848C454.386 173.16 454.386 170.823 455.623 168.348C456.861 165.873 458.786 164.498 460.023 165.185C461.261 165.873 461.398 168.21 460.161 170.685Z" fill="white"/>
<path d="M470.748 197.36C470.336 197.085 469.923 196.947 469.511 196.947C468.823 196.81 468.136 196.81 467.173 196.672C466.761 196.672 466.348 196.535 465.798 196.535C461.536 195.847 458.236 194.747 455.624 193.785C452.599 192.685 449.986 191.722 447.236 189.385C445.724 188.01 445.174 187.185 444.074 185.81C443.799 185.535 443.524 185.123 443.111 184.71C442.561 184.16 442.012 183.473 441.324 182.785C439.124 180.585 435.962 178.11 431.974 177.148C428.812 176.323 425.925 176.598 423.45 177.285C420.425 177.973 418.225 179.348 417.4 179.76C416.987 180.035 416.575 180.31 416.162 180.585C416.025 180.723 415.887 180.86 415.75 180.86C414.787 181.548 414.1 182.235 413.55 182.785C412.588 182.648 411.763 182.648 410.938 182.648C408.188 182.648 406.125 183.198 404.613 183.748C403.925 184.023 403.513 184.16 402.963 184.435C402.688 184.573 402.413 184.71 402.275 184.848C400.763 185.673 399.25 186.498 396.363 187.598C395.126 188.148 394.026 188.423 393.201 188.835C392.513 189.11 391.826 189.248 391.413 189.385C391.276 189.798 390.176 192.547 391.688 195.022C392.238 195.847 392.788 196.397 393.476 196.672C394.301 197.222 395.126 197.36 395.538 197.497C396.776 197.772 398.013 197.772 399.25 197.497C399.113 197.497 399.113 197.497 398.975 197.497C399.525 198.047 400.213 198.735 401.038 199.697C402.55 201.622 405.163 204.647 406.4 208.772C406.538 209.322 406.538 209.184 406.813 211.247C406.95 212.347 407.225 213.859 407.638 216.472C408.188 219.909 408.325 220.046 408.463 220.459C409.15 221.971 410.25 223.071 411.488 223.896C413.412 225.134 415.75 225.821 417.262 226.234C422.35 227.609 426.475 227.059 430.187 226.509C435.962 225.684 440.224 224.034 445.174 222.246C447.099 221.559 450.399 220.046 456.998 217.022C459.198 216.059 461.123 215.097 463.736 213.722C464.698 213.172 467.448 211.659 470.611 209.322C473.498 207.259 474.873 206.159 475.285 204.922C475.698 201.76 473.36 198.597 470.748 197.36ZM463.323 205.197C461.536 205.884 459.473 206.709 457.274 207.809C455.486 208.634 453.974 209.322 452.736 209.872C447.511 212.347 444.211 214.134 438.024 216.609C431.974 218.947 428.674 219.634 425.1 219.359C420.837 219.084 418.225 217.572 417.4 217.022C416.162 216.334 413.825 214.822 412.45 212.072C411.9 210.972 411.763 210.284 411.625 209.459C411.488 208.772 411.35 207.947 410.8 206.709C409.838 204.097 408.463 202.31 407.5 200.935C406.538 199.56 405.163 197.91 403.238 196.122C403.925 195.985 404.613 195.71 405.3 195.435C405.988 195.297 409.563 194.197 412.038 193.785C418.225 192.685 423.45 193.922 429.087 195.435C431.974 196.26 431.012 196.122 440.774 199.697C441.599 199.972 442.287 200.247 442.974 200.522C444.761 201.072 446.136 201.622 447.374 202.035C449.986 202.86 451.499 203.41 452.599 203.547C453.286 203.685 453.836 203.822 454.249 203.822C455.349 203.96 456.449 204.097 457.411 204.235C459.748 204.372 461.948 204.372 464.011 204.235C464.836 204.235 465.661 204.097 466.348 203.96C465.798 204.234 464.698 204.785 463.323 205.197Z" fill="#F7931E"/>
<path d="M452.737 203.546C451.225 203.546 449.987 203.409 448.75 203.271C447.65 203.134 446.688 202.859 445.863 202.584C445.45 202.446 444.763 202.171 443.663 202.034C442.425 201.759 440.775 201.484 438.85 201.622C438.438 201.622 437.888 201.622 437.475 201.759C437.338 201.759 437.338 201.759 437.2 201.759C437.2 201.759 437.2 201.759 437.063 201.759C436.65 201.759 436.1 201.896 435.55 202.034H435.413C434.863 202.171 434.313 202.309 434.038 202.446C433.488 201.897 432.526 201.072 431.151 200.522C427.576 199.009 424.138 200.384 422.351 200.934C418.639 202.309 416.301 204.509 413.139 207.534C412.451 208.084 411.901 208.771 411.489 209.184C411.351 208.496 411.214 207.671 410.664 206.434C409.701 203.821 408.326 202.034 407.364 200.659C406.401 199.284 405.026 197.634 403.102 195.847C403.789 195.709 404.477 195.434 405.164 195.159C405.851 195.022 409.426 193.922 411.901 193.509C418.089 192.409 423.313 193.647 428.951 195.159C431.838 195.984 430.876 195.847 440.638 199.422C441.463 199.697 442.15 199.972 442.838 200.247C444.625 200.797 446 201.347 447.238 201.759C450.125 202.721 451.637 203.271 452.737 203.546Z" fill="#753024"/>
<path d="M466.76 203.96C465.798 204.235 464.698 204.785 463.323 205.335C461.535 206.022 459.473 206.847 457.273 207.947C455.486 208.772 453.973 209.46 452.736 210.01C447.511 212.485 444.211 214.272 438.024 216.747C431.974 219.085 428.674 219.772 425.099 219.497C420.837 219.222 418.224 217.71 417.399 217.16C416.162 216.472 413.825 214.96 412.45 212.21C411.9 211.11 411.536 209.766 411.398 208.941C411.948 208.391 412.358 207.982 412.908 207.432C416.07 204.407 418.764 202.31 422.339 200.935C424.127 200.248 427.819 198.751 431.394 200.264C432.769 200.814 433.485 201.623 434.035 202.173C434.447 202.035 434.994 201.91 435.544 201.773C435.819 201.773 436.778 201.396 437.053 201.396C437.328 201.396 437.053 201.396 437.611 201.396C437.611 201.396 438.849 201.396 438.986 201.396C439.124 201.396 439.934 201.396 440.071 201.396C440.621 201.396 440.791 201.396 441.203 201.396C443.128 201.258 442.846 201.498 444.221 201.773C445.184 202.048 446.072 202.39 446.485 202.527C447.31 202.802 448.026 203.144 449.126 203.282C450.226 203.419 450.632 203.282 452.144 203.282C452.831 203.419 455.127 203.659 455.539 203.659C456.639 203.797 457.972 203.822 458.935 203.96C461.272 204.097 461.777 204.097 463.839 203.96C465.17 203.871 465.935 204.097 466.76 203.96Z" fill="url(#paint0_linear_1069_3135)"/>
<path d="M452.734 141.399C453.697 138.374 456.172 136.037 459.197 135.35C462.359 134.662 465.796 135.9 467.859 138.512" stroke="#0A6127" stroke-width="0.388602" stroke-miterlimit="10"/>
<path d="M412.586 140.574C413.273 138.099 415.473 136.449 417.948 136.449C420.148 136.449 422.073 137.824 423.036 139.886" stroke="#0A6127" stroke-width="0.388602" stroke-miterlimit="10"/>
<defs>
<linearGradient id="paint0_linear_1069_3135" x1="411.505" y1="209.699" x2="466.723" y2="209.699" gradientUnits="userSpaceOnUse">
<stop stop-color="#FF5547"/>
<stop offset="1" stop-color="#FF4444"/>
</linearGradient>
</defs>
</svg>
