<svg width="320" height="300" viewBox="0 0 320 300" fill="none" xmlns="http://www.w3.org/2000/svg">
<g clip-path="url(#clip0_1069_3536)">
<rect width="320" height="300" rx="18" fill="#B4F26A"/>
<path d="M271.668 302.139C269.919 300.77 269.553 300.506 267.911 299.374C268.44 300.659 269.808 304.11 267.925 308.168C267.086 307.574 263.338 304.383 263.338 304.661C262.081 302.932 260.662 301.174 259.058 299.412C252.583 292.316 245.771 288.23 241.342 286.013C243.976 288.309 246.689 290.925 249.383 293.902C255.106 300.242 259.387 306.73 262.601 312.736C254.698 317.786 238.624 327.057 216.711 332.242C205.121 334.987 191.899 336.587 177.388 335.822C166.021 335.219 155.827 333.271 147.034 330.79C138.093 328.272 130.589 325.202 124.75 322.447C133.492 304.207 139.976 282.183 150.601 268.52C151.542 265.431 152.938 260.297 154.816 254.667C151.658 241.733 146.788 226.428 142.744 203.856C140.736 204.867 138.705 206.069 135.022 207.539C133.464 208.165 132.04 208.666 130.83 209.06C132.36 199.984 138.042 192.336 139.08 190.973C138.937 187.578 139.006 182.667 140.087 176.902C140.736 173.442 143.639 159.622 155.164 146.414C159.834 141.067 166.735 133.159 178.617 129.663C183.769 128.151 188.291 127.928 191.347 127.988C191.236 125.758 189.372 122.808 191.013 121.287C192.994 119.455 196.463 121.955 199.143 122.289C199.653 120.327 199.932 116.955 202.07 116.264C208.164 114.298 215.751 123.745 224.85 130.001C224.896 130.034 224.938 130.066 224.985 130.094C224.989 130.094 224.989 130.099 224.989 130.099C239.111 139.801 247.593 145.649 253.664 154.794C256.841 159.58 265.379 174.347 261.033 200.021C262.035 202.368 263.222 205.804 263.714 210.071C265.495 225.63 256.261 237.271 254.666 239.219C248.326 246.955 240.683 250.233 233.56 253.29C227.401 255.933 221.961 257.264 218.149 257.983C217.031 262.449 215.913 266.915 214.8 271.381C218.26 272.944 221.724 274.507 225.184 276.075C229.488 275.402 236.56 274.841 244.95 276.743C253.738 278.737 260.101 282.558 263.714 285.118C267.911 287.878 273.495 296.647 271.668 302.139Z" fill="#38C266"/>
<path d="M237.369 200.712C235.867 207.863 233.487 214.379 230.566 219.857H230.561C229.666 219.648 228.752 219.592 227.496 219.453C226.907 219.388 226.332 219.314 225.77 219.23C229.077 214.032 231.785 207.363 233.362 199.868C237.36 180.881 232.583 163.801 222.696 161.718C212.803 159.636 201.548 173.34 197.55 192.332C196.724 196.241 196.275 200.067 196.163 203.699C195.477 202.906 194.679 202.025 193.766 201.125C194.03 198.096 194.489 194.985 195.157 191.826C199.869 169.445 213.137 153.287 224.796 155.74C236.451 158.198 242.081 178.331 237.369 200.712Z" fill="#0A6127"/>
<path d="M222.696 161.718C212.804 159.636 201.548 173.34 197.551 192.332C196.725 196.241 196.275 200.068 196.164 203.699C196.632 204.232 197.05 204.724 197.416 205.16C198.812 206.811 199.591 208.035 201.586 209.774C205.106 212.844 208.524 214.138 212.456 215.581C215.86 216.833 220.169 218.419 225.771 219.23C229.078 214.032 231.786 207.363 233.363 199.868C237.361 180.881 232.584 163.801 222.696 161.718ZM224.371 195.615C221.94 205.605 215.758 212.673 210.555 211.407C205.356 210.145 203.107 201.023 205.537 191.038C207.962 181.053 214.149 173.98 219.348 175.247C224.551 176.513 226.796 185.63 224.371 195.615Z" fill="white"/>
<path d="M219.345 175.246C214.146 173.98 207.959 181.053 205.534 191.038C203.104 201.023 205.353 210.145 210.552 211.406C215.755 212.672 221.937 205.605 224.368 195.615C226.793 185.63 224.548 176.512 219.345 175.246ZM218.417 185.714C216.827 188.853 214.211 190.727 212.574 189.897C210.937 189.071 210.9 185.853 212.495 182.713C214.086 179.573 216.701 177.695 218.334 178.525C219.971 179.355 220.008 182.574 218.417 185.714Z" fill="#00371D"/>
<path d="M213.181 149.461L212.75 149.294C213.218 148.083 214.364 145.816 216.799 144.257C220.959 141.591 225.485 143.061 226.348 143.385L226.185 143.821C225.355 143.515 221.019 142.105 217.049 144.651C214.726 146.14 213.627 148.306 213.181 149.465V149.461Z" fill="#6DD38F"/>
<path d="M167.044 146.238C166.483 145.881 165.885 145.598 165.264 145.403C162.773 144.606 160.45 145.32 159.29 145.812L159.109 145.385C160.334 144.865 162.773 144.119 165.407 144.958C166.066 145.167 166.701 145.468 167.295 145.844L167.044 146.234V146.238Z" fill="#6DD38F"/>
<path d="M168.864 169.315C168.544 174.022 167.557 179.42 165.878 185.018C165.771 185.38 165.66 185.742 165.544 186.099C167.348 179.703 168.164 173.656 168.039 168.819C167.89 163.035 166.393 158.987 163.624 158.157C158.402 156.594 150.638 167.098 146.283 181.623C143.77 190.013 142.94 197.911 143.696 203.388C143.376 203.541 143.06 203.694 142.745 203.856C141.567 197.902 142.383 188.691 145.333 178.859C150.063 163.077 158.495 151.664 164.171 153.366C167.83 154.465 169.449 160.754 168.864 169.315Z" fill="#0A6127"/>
<path d="M168.036 168.819C167.702 168.652 167.35 168.522 166.983 168.434C161.784 167.168 155.602 174.241 153.172 184.226C151.549 190.913 152.017 197.216 154.067 201.023C155.139 201 156.279 201.033 157.504 201.139C158.227 200.402 159.173 199.521 160.365 198.612C162.281 195.036 164.048 190.825 165.508 186.215C165.508 186.206 165.508 186.192 165.518 186.183C165.527 186.155 165.536 186.127 165.541 186.099C167.345 179.704 168.161 173.656 168.036 168.819ZM165.546 175.525C164.938 178.025 163.389 179.797 162.086 179.481C160.783 179.166 160.217 176.879 160.824 174.375C161.437 171.875 162.986 170.099 164.289 170.419C165.592 170.735 166.153 173.021 165.546 175.525Z" fill="#00371D"/>
<path d="M168.042 168.819C167.708 168.652 167.355 168.522 166.989 168.434C161.79 167.168 155.608 174.24 153.178 184.225C151.555 190.913 152.023 197.215 154.073 201.023C150.539 201.097 147.835 201.783 145.897 202.479C145.095 202.767 144.385 203.068 143.699 203.388C142.943 197.911 143.773 190.013 146.286 181.623C150.641 167.098 158.405 156.594 163.627 158.157C166.395 158.987 167.893 163.035 168.042 168.819Z" fill="white"/>
<path d="M165.551 175.525C164.944 178.024 163.395 179.796 162.091 179.481C160.788 179.165 160.223 176.879 160.83 174.375C161.442 171.875 162.991 170.099 164.294 170.419C165.598 170.734 166.159 173.02 165.551 175.525Z" fill="white"/>
<path d="M218.416 185.714C216.825 188.854 214.209 190.727 212.572 189.897C210.935 189.072 210.898 185.853 212.493 182.713C214.084 179.574 216.7 177.695 218.332 178.525C219.969 179.356 220.007 182.574 218.416 185.714Z" fill="white"/>
<path d="M150.604 268.52C141.987 286.496 133.37 304.472 124.754 322.447C117.853 319.173 112.018 315.741 107.344 312.68C107.089 312.513 106.833 312.347 106.588 312.184C110.006 310.376 112.454 308.442 113.957 307.231C118.326 303.711 126.173 297.399 124.902 290.48C124.378 287.623 122.463 285.541 120.881 284.224C122.217 284.024 124.155 283.565 126.242 282.438C129.159 280.866 130.931 278.77 131.826 277.527C131.27 276.553 130.486 275.444 129.368 274.396C125.639 270.899 120.941 270.621 119.318 270.603C122.82 270.227 126.316 269.856 129.818 269.485C125.727 264.481 121.767 260.738 118.65 258.095C114.3 254.403 106.736 248.101 95.1975 244.024C91.6033 242.753 88.3013 241.937 85.4908 241.404C85.4676 241.288 85.4398 241.167 85.412 241.037C85.1523 239.841 84.7766 238.032 84.3963 236.029C84.1366 234.67 83.8769 233.223 83.6543 231.813C82.1099 222.032 80.918 214.491 83.0607 206.5C84.0346 202.86 85.1476 196.223 93.0363 189.823C105.247 193.079 108.67 200.508 110.757 203.968C113.618 208.713 114.847 214.426 117.31 225.858C119.587 236.432 118.618 235.954 120.139 239.553C123.631 247.845 127.541 247.507 134.136 258.169C138.189 264.727 138.43 267.639 141.728 268.887C144.547 269.958 147.655 269.55 150.604 268.52Z" fill="#38C266"/>
<path d="M82.614 241.144C84.0146 239.469 84.2279 237.457 83.8059 236.056L84.3903 236.028C84.7566 237.981 85.4152 241.023 85.5079 241.441C84.7984 241.325 82.6094 241.144 82.6094 241.144H82.614Z" fill="#0A6127"/>
<path d="M148.729 238.412C148.534 238.342 148.335 238.277 148.131 238.213C145.061 236.807 139.083 233.528 134.728 226.822C134.478 226.437 132.46 223.288 131.38 219.787C131.324 219.611 131.273 219.435 131.227 219.258C132.284 219.884 133.341 220.177 133.986 220.348C135.669 220.793 137.121 220.742 138.851 220.362C138.744 220.395 138.633 220.427 138.526 220.459C139.185 221.109 140.112 222.073 141.151 223.307C143.206 225.751 146.559 229.726 148.187 235.142C148.377 235.778 148.316 235.676 148.729 238.412Z" fill="#38C266"/>
<path d="M201.959 226.479H201.955C200.355 225.95 198.458 225.301 196.176 224.503C195.262 224.188 194.289 223.845 193.245 223.474C180.352 218.901 181.748 219.008 177.908 217.964C170.641 215.988 163.814 214.212 155.721 215.729C152.461 216.341 147.754 217.723 146.938 217.964C145.936 218.256 145.022 218.539 144.188 218.804C146.636 221.122 148.431 223.362 149.692 225.148C150.935 226.906 152.605 229.266 153.936 232.703C154.576 234.368 154.808 235.411 154.966 236.269C155.61 235.601 156.348 234.859 157.173 234.08C161.333 230.157 164.464 227.207 169.236 225.482C171.541 224.652 176.067 223.019 180.737 224.925C182.49 225.639 183.747 226.641 184.535 227.383C185.004 227.202 185.635 226.98 186.404 226.771C186.418 226.766 186.437 226.762 186.451 226.757C186.511 226.739 186.571 226.725 186.632 226.706C186.817 226.655 186.989 226.618 187.17 226.576C187.295 226.548 187.42 226.516 187.55 226.488C187.898 226.414 188.241 226.349 188.58 226.298C188.617 226.289 188.654 226.284 188.686 226.279C188.788 226.266 188.89 226.247 188.992 226.238C189.697 226.15 190.323 226.108 190.829 226.062C193.259 225.936 195.397 226.247 197.025 226.609C198.319 226.896 199.293 227.216 199.835 227.383C200.916 227.713 202.177 228.009 203.671 228.213H203.675C205.159 228.427 206.861 228.547 208.828 228.533C207.39 228.176 205.349 227.592 201.959 226.479Z" stroke="#231F20" stroke-miterlimit="10"/>
<path d="M266.661 309.754C265.835 310.398 264.964 311.057 264.045 311.72C263.577 312.058 263.095 312.397 262.603 312.736C259.389 306.73 255.108 300.242 249.386 293.902C246.691 290.925 243.978 288.309 241.344 286.013C245.773 288.23 252.586 292.316 259.06 299.411C260.664 301.174 262.088 302.936 263.34 304.666C264.606 306.41 265.706 308.121 266.661 309.754Z" fill="#0A6127"/>
<path d="M86.3366 241.57C84.6949 241.301 84.1801 241.259 82.6172 241.143L83.0299 240.61C84.5836 240.744 84.834 240.795 86.4108 241.037L86.3366 241.57Z" fill="#0A6127"/>
<path d="M122.692 284.775C124.273 286.093 125.614 287.498 126.012 290.373C128.359 300.2 110.764 310.872 107.346 312.68C107.091 312.514 106.836 312.347 106.59 312.184C110.008 310.376 112.456 308.442 113.959 307.231C118.328 303.711 126.175 297.399 124.904 290.48C124.38 287.623 122.465 285.541 120.883 284.224C122.219 284.024 124.157 283.565 126.244 282.438C129.161 280.866 130.933 278.77 131.828 277.527C131.272 276.553 130.488 275.444 129.37 274.396C125.641 270.899 120.943 270.621 119.32 270.603C122.822 270.227 126.319 269.856 129.82 269.485C125.73 264.481 121.769 260.738 118.652 258.095C114.302 254.403 106.738 248.101 95.1996 244.024C91.6054 242.753 88.3033 241.937 85.4929 241.404C85.4697 241.288 85.4419 241.167 85.4141 241.037C85.9706 241.019 86.3184 241.019 86.4112 241.037C89.2216 241.571 92.2268 242.104 95.8211 243.375C107.36 247.451 115.146 253.476 119.496 257.167C122.613 259.811 127.738 265.121 131.828 270.125C128.67 270.64 128.396 270.607 124.756 270.895C127.705 271.127 132.283 275.514 133.233 277.077C132.338 278.32 130.608 283.329 122.692 284.775Z" fill="#0A6127"/>
<path d="M131.824 277.527C130.929 278.77 129.158 280.866 126.24 282.438C124.154 283.565 122.215 284.024 120.879 284.224C122.461 285.541 124.376 287.623 124.9 290.48C126.171 297.399 118.324 303.711 113.955 307.231C112.453 308.442 110.004 310.376 106.586 312.184C103.757 313.682 100.265 315.092 96.0862 315.941C93.1366 316.539 75.7406 320.059 64.5962 308.794C60.3203 304.472 58.4977 299.524 57.6721 296.509C56.8513 296.361 56.035 296.212 55.2142 296.064V281.77C53.424 279.98 49.8576 275.913 48.5127 269.708C46.1753 258.888 52.5104 250.434 53.8739 248.713C58.8408 242.438 65.3151 240.323 71.0704 238.44C76.2044 236.762 80.2484 236.21 83.8102 236.057C84.3992 237.443 83.9679 239.915 82.6183 241.144C83.3232 241.153 83.6896 241.13 85.489 241.404C88.2995 241.937 91.6015 242.753 95.1957 244.024C106.734 248.101 114.298 254.403 118.649 258.095C121.765 260.738 125.726 264.481 129.816 269.485C126.315 269.856 122.818 270.227 119.316 270.603C120.94 270.621 125.638 270.9 129.366 274.396C130.484 275.445 131.268 276.553 131.824 277.527Z" fill="#38C266"/>
<path d="M193.347 261.707L192.062 261.582C195.578 261.234 202.159 260.561 205.656 260.07C209.82 259.481 214.022 258.78 218.15 257.987L217.927 258.878C213.79 259.675 209.797 260.334 205.623 260.923C202.122 261.419 197.053 261.595 193.347 261.707Z" fill="#0A6127"/>
<path d="M232.225 220.46C231.631 220.168 231.103 219.987 230.569 219.857H230.565C229.669 219.648 228.756 219.592 227.499 219.453C226.91 219.388 226.335 219.314 225.774 219.231C220.171 218.419 215.863 216.833 212.459 215.581C208.526 214.139 205.108 212.845 201.588 209.774C199.594 208.035 198.815 206.811 197.419 205.16C197.053 204.724 196.635 204.232 196.167 203.699C195.48 202.906 194.683 202.025 193.769 201.125C190.815 198.18 186.724 194.985 181.488 193.691C177.417 192.685 173.558 193.046 170.377 193.858C166.485 194.841 163.605 196.492 162.576 197.118C162.001 197.466 161.467 197.823 160.967 198.18C160.763 198.324 160.563 198.472 160.373 198.612C159.181 199.521 158.235 200.402 157.512 201.139C156.287 201.032 155.146 201 154.075 201.023C150.541 201.097 147.837 201.784 145.899 202.479C145.096 202.767 144.387 203.068 143.7 203.388C143.38 203.541 143.065 203.694 142.75 203.857C140.742 204.868 138.71 206.069 135.028 207.539C133.47 208.165 132.046 208.666 130.836 209.06C129.922 209.357 129.124 209.589 128.48 209.774C128.271 210.322 126.944 213.976 128.925 217.07C129.569 218.076 130.4 218.767 131.23 219.259C132.287 219.885 133.345 220.177 133.989 220.348C135.673 220.794 137.124 220.743 138.854 220.362C138.747 220.395 138.636 220.427 138.529 220.46C139.188 221.109 140.116 222.074 141.154 223.307C143.209 225.751 146.562 229.726 148.19 235.143C148.38 235.778 148.32 235.676 148.732 238.412C148.941 239.785 149.27 241.877 149.808 245.137C150.541 249.566 150.62 249.844 150.815 250.275C151.668 252.186 153.147 253.601 154.822 254.667C157.396 256.318 160.424 257.135 162.316 257.645C168.883 259.416 174.268 258.707 179.105 258.02C186.692 256.944 192.178 254.834 198.611 252.362C201.064 251.416 205.41 249.45 214.096 245.513C216.911 244.237 219.508 243.041 222.843 241.232C224.178 240.508 227.694 238.565 231.891 235.532C235.657 232.815 237.549 231.423 237.92 229.837C238.75 226.326 235.643 222.148 232.225 220.46ZM222.625 230.857C220.357 231.762 217.672 232.879 214.694 234.197C212.44 235.194 210.479 236.103 208.693 236.951C201.88 240.193 197.618 242.577 189.53 245.661C181.604 248.68 177.393 249.561 172.7 249.232C167.056 248.838 163.643 246.904 162.576 246.255C161.055 245.332 157.943 243.389 156.023 239.702C155.253 238.217 155.174 237.42 154.97 236.27C154.812 235.412 154.581 234.368 153.941 232.703C152.609 229.267 150.94 226.906 149.697 225.148C148.436 223.363 146.641 221.123 144.192 218.804C145.027 218.54 145.94 218.257 146.942 217.965C147.758 217.723 152.466 216.341 155.726 215.729C163.819 214.213 170.645 215.989 177.913 217.965C181.753 219.008 180.357 218.901 193.25 223.474C194.293 223.845 195.267 224.188 196.181 224.504C198.462 225.301 200.359 225.951 201.959 226.479H201.964C205.354 227.593 207.395 228.177 208.832 228.534H208.869C209.802 228.757 210.479 228.882 211.119 228.984C212.542 229.211 213.929 229.373 215.283 229.48C218.377 229.73 221.285 229.689 223.951 229.471C225.022 229.383 226.057 229.267 227.049 229.132C225.862 229.582 224.369 230.153 222.625 230.857Z" fill="#F7931E"/>
<path d="M208.836 228.534C206.869 228.548 205.167 228.427 203.683 228.214H203.678C202.185 228.01 200.924 227.713 199.843 227.384C199.3 227.217 198.326 226.897 197.033 226.609C195.405 226.248 193.267 225.937 190.837 226.062C190.243 226.09 189.631 226.145 189 226.238C188.898 226.248 188.796 226.266 188.694 226.28C188.662 226.285 188.624 226.289 188.587 226.299C187.98 226.382 187.326 226.512 186.64 226.707C186.579 226.725 186.519 226.739 186.459 226.758C186.445 226.762 186.426 226.767 186.412 226.772C185.642 226.98 185.012 227.203 184.543 227.384C183.755 226.642 182.498 225.64 180.745 224.926C176.075 223.02 171.548 224.652 169.244 225.482C164.471 227.208 161.341 230.157 157.181 234.081C156.355 234.86 155.618 235.602 154.973 236.27C154.816 235.412 154.584 234.368 153.944 232.703C152.613 229.267 150.943 226.906 149.7 225.148C148.439 223.363 146.644 221.123 144.195 218.804C145.03 218.54 145.944 218.257 146.945 217.965C147.762 217.723 152.469 216.341 155.729 215.729C163.822 214.213 170.649 215.989 177.916 217.965C181.756 219.008 180.36 218.901 193.253 223.474C194.296 223.845 195.27 224.188 196.184 224.504C198.466 225.301 200.362 225.951 201.962 226.479H201.967C205.357 227.592 207.398 228.177 208.836 228.534Z" fill="#753024"/>
<path d="M227.048 229.133C225.861 229.582 224.367 230.153 222.623 230.858C220.356 231.762 217.67 232.88 214.693 234.197C212.439 235.194 210.477 236.103 208.692 236.952C201.879 240.194 197.617 242.577 189.529 245.661C181.603 248.681 177.392 249.562 172.699 249.232C167.055 248.838 163.641 246.904 162.575 246.255C161.053 245.332 157.942 243.389 156.022 239.702C155.252 238.218 155.173 237.42 154.969 236.27C155.613 235.602 156.351 234.86 157.176 234.081C161.336 230.158 164.467 227.208 169.239 225.483C171.544 224.653 176.07 223.02 180.74 224.926C182.493 225.64 183.75 226.642 184.539 227.384C185.007 227.203 185.638 226.981 186.408 226.772C186.422 226.767 186.44 226.763 186.454 226.758C186.514 226.74 186.575 226.726 186.635 226.707C186.922 226.633 187.229 226.559 187.553 226.489C187.901 226.415 188.244 226.35 188.583 226.299C188.62 226.29 188.657 226.285 188.689 226.28C188.791 226.267 188.893 226.248 188.996 226.239C189.7 226.151 190.327 226.109 190.832 226.062C193.262 225.937 195.4 226.248 197.028 226.61C198.322 226.897 199.296 227.217 199.838 227.384C200.919 227.713 202.181 228.01 203.674 228.214H203.678C205.163 228.428 206.865 228.548 208.831 228.534H208.868C209.8 228.757 210.477 228.882 211.117 228.984C212.541 229.211 213.928 229.374 215.282 229.48C218.375 229.731 221.283 229.689 223.95 229.471C225.021 229.383 226.055 229.267 227.048 229.133Z" fill="url(#paint0_linear_1069_3536)"/>
<path d="M177.152 235.862L176.734 235.663C178.01 233.015 179.869 230.547 182.137 228.688C183.366 227.681 184.86 227.245 186.409 226.777L187.174 226.582C185.667 227.037 183.649 228.154 182.453 229.133C180.236 230.951 178.404 233.279 177.152 235.867V235.862Z" fill="#F76B5E"/>
<path d="M216.712 331.968V332.242C205.123 334.987 191.901 336.587 177.389 335.822C166.022 335.219 155.829 333.272 147.035 330.79C144.87 330.067 142.727 329.283 140.612 328.444C140.005 326.287 139.583 323.231 140.547 320.012C142.356 314.007 142.838 316.771 142.838 316.771C142.838 316.771 145.514 305.738 151.033 301.438C155.657 297.83 153.932 299.491 153.25 300.131C157.169 297.014 161.983 295.247 161.983 295.247C168.104 293.002 180.789 288.342 191.919 291.987C191.919 291.987 197.452 293.8 201.352 297.714C201.705 298.062 203.235 299.722 203.402 300.409C203.421 300.488 203.485 300.812 203.745 301.1C203.824 301.183 203.889 301.239 204.093 301.373C204.631 301.749 204.905 301.935 204.983 301.898C205.048 301.86 205.099 301.74 205.062 301.401C205.03 301.132 204.956 300.743 204.793 300.154C204.793 300.154 212.316 308.154 215.214 318.218C216.647 323.194 216.68 327.734 216.712 331.968Z" fill="#6DD38F"/>
<rect x="47" y="37" width="227" height="59" rx="8" fill="white"/>
<path d="M66.502 80V53.8182H77.8031C79.7463 53.8182 81.4466 54.1719 82.9039 54.8793C84.3613 55.5866 85.4949 56.6051 86.3045 57.9347C87.1142 59.2642 87.519 60.858 87.519 62.7159C87.519 64.5909 87.1014 66.1719 86.2662 67.4588C85.4395 68.7457 84.2761 69.7173 82.7761 70.3736C81.2846 71.0298 79.5417 71.358 77.5474 71.358H70.7974V65.8352H76.1156C76.9508 65.8352 77.6625 65.733 78.2505 65.5284C78.8471 65.3153 79.3031 64.9787 79.6184 64.5185C79.9423 64.0582 80.1042 63.4574 80.1042 62.7159C80.1042 61.9659 79.9423 61.3565 79.6184 60.8878C79.3031 60.4105 78.8471 60.0611 78.2505 59.8395C77.6625 59.6094 76.9508 59.4943 76.1156 59.4943H73.6099V80H66.502ZM81.8429 67.983L88.3883 80H80.6667L74.2747 67.983H81.8429ZM107.552 62.4602C107.441 62.0085 107.266 61.6122 107.028 61.2713C106.789 60.9219 106.491 60.6278 106.133 60.3892C105.783 60.142 105.374 59.9588 104.905 59.8395C104.445 59.7116 103.938 59.6477 103.384 59.6477C102.191 59.6477 101.172 59.9332 100.329 60.5043C99.4934 61.0753 98.8542 61.8977 98.411 62.9716C97.9764 64.0455 97.7591 65.3409 97.7591 66.858C97.7591 68.392 97.9679 69.7045 98.3855 70.7955C98.8031 71.8864 99.4252 72.7216 100.252 73.3011C101.079 73.8807 102.106 74.1705 103.333 74.1705C104.415 74.1705 105.314 74.0128 106.03 73.6974C106.755 73.3821 107.296 72.9347 107.654 72.3551C108.012 71.7756 108.191 71.0937 108.191 70.3097L109.418 70.4375H103.435V65.375H115.043V69.0057C115.043 71.392 114.536 73.4332 113.522 75.1293C112.516 76.8168 111.127 78.1122 109.354 79.0156C107.59 79.9105 105.566 80.358 103.282 80.358C100.733 80.358 98.4963 79.8168 96.5701 78.7344C94.644 77.652 93.1397 76.1094 92.0574 74.1065C90.9835 72.1037 90.4466 69.7216 90.4466 66.9602C90.4466 64.7955 90.7747 62.8778 91.4309 61.2074C92.0957 59.5369 93.0162 58.1264 94.1923 56.9759C95.3684 55.8168 96.7278 54.9432 98.2704 54.3551C99.813 53.7585 101.466 53.4602 103.231 53.4602C104.782 53.4602 106.222 53.6818 107.552 54.125C108.89 54.5597 110.07 55.1818 111.093 55.9915C112.124 56.7926 112.955 57.7429 113.586 58.8423C114.216 59.9418 114.6 61.1477 114.736 62.4602H107.552ZM116.053 53.8182H123.979L129.093 64.4545H129.297L134.411 53.8182H142.337L132.724 71.767V80H125.667V71.767L116.053 53.8182ZM144.654 80V53.8182H156.007C158.001 53.8182 159.676 54.0866 161.031 54.6236C162.394 55.1605 163.421 55.919 164.112 56.8991C164.811 57.8793 165.16 59.0341 165.16 60.3636C165.16 61.3267 164.947 62.2045 164.521 62.9972C164.103 63.7898 163.515 64.4545 162.757 64.9915C161.998 65.5199 161.112 65.8864 160.097 66.0909V66.3466C161.222 66.3892 162.245 66.6747 163.166 67.2031C164.086 67.723 164.819 68.4432 165.365 69.3636C165.91 70.2756 166.183 71.3494 166.183 72.5852C166.183 74.017 165.808 75.2912 165.058 76.4077C164.316 77.5241 163.259 78.402 161.887 79.0412C160.515 79.6804 158.879 80 156.978 80H144.654ZM151.762 74.3239H155.086C156.279 74.3239 157.174 74.1023 157.771 73.6591C158.367 73.2074 158.666 72.5426 158.666 71.6648C158.666 71.0511 158.525 70.5312 158.244 70.1051C157.963 69.679 157.562 69.3551 157.042 69.1335C156.531 68.9119 155.913 68.8011 155.188 68.8011H151.762V74.3239ZM151.762 64.4034H154.677C155.299 64.4034 155.849 64.3054 156.326 64.1094C156.803 63.9134 157.174 63.6321 157.438 63.2656C157.711 62.8906 157.847 62.4347 157.847 61.8977C157.847 61.0881 157.558 60.4702 156.978 60.044C156.399 59.6094 155.666 59.392 154.779 59.392H151.762V64.4034ZM178.826 70.2841H184.349L186.343 72.7898L189.718 76.625L194.116 81.9432H187.826L184.707 78.3125L182.61 75.2955L178.826 70.2841ZM194.065 66.9091C194.065 69.8239 193.498 72.2827 192.365 74.2855C191.231 76.2798 189.701 77.7926 187.775 78.8239C185.849 79.8466 183.701 80.358 181.332 80.358C178.945 80.358 176.789 79.8423 174.863 78.8111C172.945 77.7713 171.42 76.2543 170.286 74.2599C169.161 72.2571 168.599 69.8068 168.599 66.9091C168.599 63.9943 169.161 61.5398 170.286 59.5455C171.42 57.5426 172.945 56.0298 174.863 55.0071C176.789 53.9759 178.945 53.4602 181.332 53.4602C183.701 53.4602 185.849 53.9759 187.775 55.0071C189.701 56.0298 191.231 57.5426 192.365 59.5455C193.498 61.5398 194.065 63.9943 194.065 66.9091ZM186.752 66.9091C186.752 65.3409 186.544 64.0199 186.126 62.946C185.717 61.8636 185.107 61.0455 184.298 60.4915C183.497 59.929 182.508 59.6477 181.332 59.6477C180.156 59.6477 179.163 59.929 178.353 60.4915C177.552 61.0455 176.943 61.8636 176.525 62.946C176.116 64.0199 175.911 65.3409 175.911 66.9091C175.911 68.4773 176.116 69.8026 176.525 70.8849C176.943 71.9588 177.552 72.777 178.353 73.3395C179.163 73.8935 180.156 74.1705 181.332 74.1705C182.508 74.1705 183.497 73.8935 184.298 73.3395C185.107 72.777 185.717 71.9588 186.126 70.8849C186.544 69.8026 186.752 68.4773 186.752 66.9091ZM195.442 59.5455V53.8182H218.198V59.5455H210.323V80H203.317V59.5455H195.442Z" fill="#38C266"/>
<path d="M249.778 72.2601C248.817 72.2601 247.922 72.5395 247.167 73.0198L239.551 67.7022C239.673 67.2754 239.74 66.8251 239.74 66.3591C239.74 65.8929 239.673 65.4427 239.551 65.0159L246.962 59.8418C247.757 60.4066 248.728 60.7399 249.778 60.7399C252.467 60.7399 254.648 58.5595 254.648 55.87C254.648 53.1804 252.467 51 249.778 51C247.088 51 244.908 53.1804 244.908 55.8699C244.908 56.2251 244.947 56.5711 245.019 56.9046L237.42 62.2101C236.678 61.7532 235.805 61.4892 234.87 61.4892C232.18 61.4892 230 63.6695 230 66.3591C230 69.0486 232.18 71.229 234.87 71.229C235.805 71.229 236.678 70.9649 237.42 70.508L245.078 75.8545C244.968 76.2612 244.908 76.6886 244.908 77.1301C244.908 79.8196 247.088 82 249.778 82C252.467 82 254.648 79.8196 254.648 77.1301C254.648 74.4405 252.467 72.2601 249.778 72.2601Z" fill="#38C266"/>
</g>
<defs>
<linearGradient id="paint0_linear_1069_3536" x1="154.969" y1="236.669" x2="227.048" y2="236.669" gradientUnits="userSpaceOnUse">
<stop stop-color="#FF5547"/>
<stop offset="1" stop-color="#FF4444"/>
</linearGradient>
<clipPath id="clip0_1069_3536">
<rect width="320" height="300" rx="18" fill="white"/>
</clipPath>
</defs>
</svg>
