<svg width="320" height="300" viewBox="0 0 320 300" fill="none" xmlns="http://www.w3.org/2000/svg">
<g clip-path="url(#clip0_1069_3298)">
<rect width="320" height="300" rx="18" fill="#2FD566" fill-opacity="0.2"/>
<path d="M290.368 151.201H312.064L243.044 55H203.312L205.433 144.241V296.118L290.225 306.753L290.368 151.201Z" fill="#52B46D"/>
<path d="M290.368 151.201H250.635L250.258 240.261L250.505 310.124L290.226 306.753L290.368 151.201Z" fill="#3E8452"/>
<path d="M250.634 151.201H272.33L203.312 55L146 143.832L165.701 144.241V311.995L250.504 326L250.634 151.201Z" fill="#51D776"/>
<path d="M99 321C148.706 321 189 275.557 189 219.5C189 163.443 148.706 118 99 118C49.2944 118 9 163.443 9 219.5C9 275.557 49.2944 321 99 321Z" fill="#075430"/>
<path d="M116 321C165.706 321 206 275.557 206 219.5C206 163.443 165.706 118 116 118C66.2944 118 26 163.443 26 219.5C26 275.557 66.2944 321 116 321Z" fill="#38C266"/>
<path d="M78.0861 273.574L144.266 170H161.914L95.7341 273.574H78.0861ZM85.4869 224.131C80.6479 224.131 76.568 222.995 73.2472 220.721C69.9263 218.353 67.3645 215.133 65.5618 211.06C63.8539 206.987 63 202.299 63 196.995C63 191.501 63.9488 186.765 65.8464 182.787C67.7441 178.809 70.4007 175.778 73.8165 173.694C77.3271 171.515 81.407 170.426 86.0562 170.426C90.8951 170.426 94.975 171.61 98.2959 173.978C101.617 176.251 104.131 179.424 105.839 183.497C107.547 187.57 108.401 192.211 108.401 197.421C108.401 203.104 107.452 207.934 105.554 211.913C103.657 215.891 100.953 218.922 97.4419 221.005C94.0262 223.089 90.0412 224.131 85.4869 224.131ZM85.6292 209.639C86.4831 209.639 87.3371 209.497 88.191 209.213C89.0449 208.929 89.7091 207.934 90.1835 206.23C90.7528 204.43 91.0375 201.446 91.0375 197.279C91.0375 193.111 90.7528 190.175 90.1835 188.47C89.7091 186.765 89.0449 185.77 88.191 185.486C87.3371 185.202 86.4831 185.06 85.6292 185.06C84.8702 185.06 84.0637 185.202 83.2097 185.486C82.4507 185.77 81.7865 186.765 81.2172 188.47C80.6479 190.08 80.3633 193.016 80.3633 197.279C80.3633 200.404 80.5056 202.82 80.7903 204.525C81.1698 206.23 81.5968 207.461 82.0712 208.219C82.6404 208.882 83.2097 209.308 83.779 209.497C84.4432 209.592 85.0599 209.639 85.6292 209.639ZM154.086 274C149.247 274 145.167 272.816 141.846 270.448C138.526 268.08 135.964 264.86 134.161 260.787C132.453 256.714 131.599 252.073 131.599 246.863C131.599 241.275 132.548 236.492 134.446 232.514C136.438 228.536 139.142 225.505 142.558 223.421C146.069 221.242 150.101 220.153 154.655 220.153C159.494 220.153 163.574 221.337 166.895 223.705C170.216 225.978 172.73 229.151 174.438 233.224C176.146 237.297 177 241.938 177 247.148C177 252.831 176.051 257.709 174.154 261.781C172.256 265.76 169.599 268.791 166.184 270.874C162.768 272.958 158.735 274 154.086 274ZM154.371 259.366C155.225 259.366 156.031 259.224 156.79 258.94C157.644 258.656 158.308 257.661 158.783 255.956C159.352 254.157 159.637 251.173 159.637 247.005C159.637 242.838 159.352 239.902 158.783 238.197C158.308 236.492 157.644 235.497 156.79 235.213C156.031 234.929 155.225 234.787 154.371 234.787C153.612 234.787 152.805 234.929 151.951 235.213C151.097 235.497 150.386 236.492 149.816 238.197C149.247 239.807 148.963 242.743 148.963 247.005C148.963 251.173 149.247 254.157 149.816 255.956C150.386 257.661 151.097 258.656 151.951 258.94C152.805 259.224 153.612 259.366 154.371 259.366Z" fill="white"/>
<path d="M195 250.778L215.572 245.149L238.481 248.842L217.911 253.597L195 250.778Z" fill="#D7F7F6"/>
<path d="M195 250.778L217.911 253.597V303.859L195 300.15V250.778Z" fill="#DCEEED"/>
<path d="M217.914 223.78L240.823 226.599V307.569L217.914 303.859V223.78Z" fill="#C2E1DC"/>
<path d="M240.82 250.778L263.73 253.597V311.22L240.82 307.51V250.778Z" fill="#DCEEED"/>
<path d="M284.297 248.842L263.727 253.597V311.22L284.297 305.594V248.842Z" fill="#63A099"/>
<path d="M240.82 250.778L261.39 245.149L284.3 248.842L263.73 253.597L240.82 250.778Z" fill="#D7F7F6"/>
<path d="M261.39 221.845L240.82 226.599V250.777L261.39 245.149V221.845Z" fill="#63A099"/>
<path d="M217.914 223.78L239.653 219.128L261.393 221.845L240.823 226.599L217.914 223.78Z" fill="#D7F7F6"/>
</g>
<defs>
<clipPath id="clip0_1069_3298">
<rect width="320" height="300" rx="18" fill="white"/>
</clipPath>
</defs>
</svg>
